<svg version="1.1" id="Layer_1" xmlns="http://www.w3.org/2000/svg" xmlns:xlink="http://www.w3.org/1999/xlink" x="0px" y="0px"
	 width="100%" viewBox="0 0 512 512" enable-background="new 0 0 512 512" xml:space="preserve">
<path fill="#24CFEE" opacity="1.000000" stroke="none" 
	d="
M272.000000,513.000000 
	C254.645767,513.000000 237.291550,513.000000 219.536255,512.663696 
	C220.242676,510.899109 221.180832,509.289368 222.485336,508.072174 
	C230.622177,500.479980 238.841766,492.976501 247.032379,485.441956 
	C267.938019,466.210907 288.846497,446.982971 309.746765,427.746124 
	C326.606720,412.228058 343.453674,396.695801 360.311523,381.175446 
	C377.054077,365.761200 393.801971,350.352753 410.549652,334.944061 
	C427.174866,319.648102 443.839966,304.395264 460.418274,289.048645 
	C475.409271,275.171387 490.265961,261.148865 505.289032,247.306717 
	C507.560699,245.213638 510.415131,243.753113 513.000000,242.000000 
	C513.000000,258.020905 513.000000,274.041779 512.659302,290.600800 
	C506.623047,296.304199 500.887512,301.426361 495.242340,306.646210 
	C488.854065,312.553131 482.609955,318.616791 476.186859,324.484955 
	C469.714203,330.398407 463.039185,336.090271 456.562317,341.999176 
	C449.859650,348.114044 443.227325,354.309448 436.687378,360.597717 
	C433.717621,363.453217 431.251740,366.847076 428.198761,369.598999 
	C419.053314,377.842621 409.754364,385.916840 400.460999,393.994690 
	C398.213501,395.948242 395.581177,397.476379 393.430603,399.520752 
	C388.327057,404.372406 383.530365,409.549500 378.380615,414.349335 
	C371.645905,420.626434 364.616486,426.586548 357.850830,432.831451 
	C351.184357,438.984833 344.760345,445.400818 338.097229,451.557922 
	C332.027771,457.166382 325.711182,462.507080 319.629822,468.103027 
	C312.975586,474.226074 306.578247,480.630859 299.860748,486.681793 
	C293.627289,492.296844 286.979187,497.453918 280.789856,503.114624 
	C277.553406,506.074646 274.910797,509.683929 272.000000,513.000000 
z"/>
<path fill="#24EEC7" opacity="1.000000" stroke="none" 
	d="
M238.000000,1.000003 
	C253.354233,1.000000 268.708466,1.000000 284.462769,1.338649 
	C280.066864,11.924878 269.187012,16.530827 262.839233,25.359516 
	C262.225403,26.213245 260.751129,26.394152 259.855438,27.111166 
	C258.205811,28.431669 256.642273,29.870111 255.125671,31.344557 
	C249.156311,37.147968 243.223923,42.989388 237.257889,48.796230 
	C236.913269,49.131641 236.335266,49.218472 235.961990,49.534519 
	C230.110840,54.488880 224.265564,59.450348 218.454941,64.452042 
	C217.977509,64.863022 217.860428,65.676094 217.405624,66.132729 
	C215.212646,68.334450 213.047073,70.575775 210.713745,72.622932 
	C204.950943,77.678986 199.099319,82.633736 193.296097,87.643921 
	C193.057068,87.850304 192.998230,88.258095 192.768738,88.483879 
	C186.478653,94.671844 180.181976,100.853134 173.864929,107.013535 
	C173.522186,107.347786 172.929688,107.417503 172.561539,107.735497 
	C170.593063,109.435753 168.602814,111.117043 166.723404,112.912994 
	C160.823624,118.550743 154.983566,124.251022 149.077240,129.881821 
	C148.498337,130.433716 147.529800,130.561859 146.901672,131.080078 
	C145.270370,132.425919 143.675079,133.825134 142.159500,135.299774 
	C136.192474,141.105682 130.263687,146.950897 124.309601,152.770157 
	C124.079796,152.994751 123.700508,153.060440 123.449982,153.270615 
	C117.451714,158.302979 111.451828,163.333588 105.488235,168.406845 
	C105.008751,168.814758 104.894165,169.636459 104.433159,170.083527 
	C98.333649,175.998734 92.212639,181.891953 86.058090,187.749786 
	C85.606461,188.179642 84.743034,188.164917 84.263443,188.579453 
	C82.528015,190.079514 80.838181,191.637177 79.197052,193.240570 
	C73.241875,199.058807 67.321907,204.913147 61.358192,210.722565 
	C60.899391,211.169495 60.128269,211.284119 59.630692,211.704956 
	C57.645004,213.384460 55.646027,215.057037 53.768265,216.853729 
	C47.871803,222.495529 42.030178,228.194626 36.156048,233.859833 
	C35.924995,234.082672 35.540768,234.141113 35.291615,234.351562 
	C29.311646,239.402969 23.324596,244.446350 17.391932,249.552872 
	C16.797991,250.064117 16.713476,251.191391 16.105097,251.657852 
	C11.108578,255.488815 6.043957,259.230927 1.000001,263.000000 
	C1.000000,248.645767 1.000000,234.291550 1.347204,219.405579 
	C8.558211,212.996796 15.542574,207.253372 22.249508,201.202438 
	C28.116903,195.908920 33.571407,190.159775 39.392258,184.812134 
	C46.067673,178.679413 52.986206,172.811996 59.709305,166.730042 
	C61.538109,165.075653 62.889420,162.891983 64.724358,161.246078 
	C71.594429,155.083832 78.628601,149.104492 85.497063,142.940491 
	C92.108543,137.007095 98.595131,130.934418 105.129257,124.914970 
	C111.080261,119.432732 117.076401,113.997849 122.951088,108.434853 
	C128.568588,103.115402 133.999451,97.598831 139.617279,92.279732 
	C144.049789,88.082924 148.623627,84.034317 153.166916,79.955772 
	C160.159241,73.678688 167.241516,67.500343 174.167480,61.151241 
	C179.622910,56.150185 184.809387,50.855122 190.279938,45.871323 
	C196.857574,39.878929 203.649612,34.122559 210.275146,28.181837 
	C217.247757,21.929901 224.222778,15.675055 231.011536,9.226480 
	C233.605362,6.762611 235.685669,3.758122 238.000000,1.000003 
z"/>
<path fill="#24D4E7" opacity="1.000000" stroke="none" 
	d="
M166.000000,513.000000 
	C154.645767,513.000000 143.291550,513.000000 131.488739,512.635315 
	C135.283249,504.281219 143.777527,500.374817 149.129135,493.448547 
	C149.221176,493.329407 149.441452,493.318237 149.564255,493.212830 
	C155.513275,488.108124 161.460388,483.001221 167.395279,477.880127 
	C167.636276,477.672211 167.710587,477.277679 167.941925,477.051086 
	C173.875565,471.238892 179.814667,465.432190 185.775391,459.647827 
	C186.118134,459.315155 186.722977,459.259521 187.084961,458.938599 
	C189.034714,457.209778 190.978104,455.471344 192.865143,453.674774 
	C198.779114,448.044342 204.666321,442.385803 210.568665,436.743164 
	C210.684555,436.632355 210.879364,436.606689 211.002991,436.501068 
	C217.458069,430.987427 223.913849,425.474609 230.349487,419.938354 
	C230.713333,419.625336 230.839005,419.041748 231.193695,418.710724 
	C233.806839,416.271637 236.466507,413.882355 239.076874,411.440369 
	C240.389053,410.212830 241.618683,408.897583 242.902939,407.639648 
	C248.846481,401.817810 254.769791,395.974792 260.774750,390.216949 
	C261.582306,389.442688 262.868164,389.192749 263.831573,388.548859 
	C264.918457,387.822449 265.983521,387.016144 266.898407,386.087341 
	C272.756500,380.140198 278.548706,374.128052 284.425415,368.199493 
	C285.221680,367.396179 286.463257,367.051636 287.339203,366.307129 
	C293.180115,361.342194 299.025726,356.380676 304.770844,351.305939 
	C308.063538,348.397400 311.300110,345.399750 314.298340,342.195526 
	C315.551483,340.856293 316.120178,338.876617 317.463867,337.116272 
	C325.570648,337.030762 333.235321,336.655823 340.850006,337.112915 
	C347.441833,337.508575 351.195435,334.960602 354.055450,329.048920 
	C362.361603,311.879822 371.170929,294.954102 380.147034,277.891876 
	C385.962677,274.832764 391.921295,272.573181 395.308594,266.692047 
	C396.244507,265.067108 398.151978,263.992218 399.642853,262.698547 
	C402.105713,260.561462 404.694061,258.558228 407.048279,256.308868 
	C412.483093,251.116104 417.800629,245.800766 423.194366,240.564606 
	C423.657227,240.115234 424.411346,239.972687 424.896393,239.538254 
	C427.557983,237.154495 430.209564,234.757477 432.798828,232.295883 
	C434.111633,231.047806 435.219391,229.583527 436.536713,228.340897 
	C439.604370,225.447220 442.485138,222.260696 445.910095,219.861649 
	C451.761139,215.763184 457.018250,211.162994 461.378052,205.494873 
	C462.026093,204.652359 463.462982,204.464737 464.382233,203.771622 
	C465.810425,202.694733 467.137115,201.476028 468.454071,200.260269 
	C471.212738,197.713501 473.950073,195.143188 476.671021,192.556091 
	C478.573181,190.747467 480.424683,188.885742 482.314178,187.063690 
	C488.198730,181.389130 494.057312,175.687012 499.995056,170.068619 
	C502.585999,167.617035 505.273468,165.253784 508.056427,163.024307 
	C509.552032,161.826141 511.342560,160.996124 513.000000,160.000000 
	C513.000000,170.687561 513.000000,181.375122 512.654175,192.594940 
	C507.697296,196.846985 502.888062,200.349792 498.521851,204.337646 
	C492.057129,210.242126 486.041138,216.637527 479.583740,222.550461 
	C473.491028,228.129486 467.015839,233.288422 460.821198,238.759277 
	C456.615509,242.473526 452.570923,246.372955 448.512909,250.250900 
	C442.421051,256.072418 436.497375,262.075165 430.285461,267.764221 
	C424.066772,273.459442 417.412659,278.682770 411.252136,284.437103 
	C401.112213,293.908478 391.379181,303.817993 381.173340,313.215576 
	C370.231354,323.291016 358.924194,332.969269 347.812286,342.861176 
	C343.745270,346.481689 339.760376,350.195526 335.774445,353.905914 
	C328.398315,360.772156 321.082886,367.703888 313.677032,374.537750 
	C308.455017,379.356445 303.068085,383.996735 297.857697,388.827667 
	C290.710632,395.454224 283.719116,402.248932 276.550964,408.852173 
	C270.956360,414.005890 265.161896,418.941925 259.517395,424.042328 
	C255.479507,427.690918 251.545685,431.454559 247.560379,435.161469 
	C240.184662,442.021820 232.828613,448.903595 225.419678,455.727936 
	C219.946960,460.768799 214.333099,465.657867 208.910187,470.750946 
	C202.894958,476.400360 197.142395,482.332550 191.059998,487.906494 
	C184.719620,493.716736 177.976089,499.091095 171.712799,504.979370 
	C169.367737,507.184052 167.879120,510.299713 166.000000,513.000000 
z"/>
<path fill="#24E9CD" opacity="1.000000" stroke="none" 
	d="
M338.000000,0.999999 
	C350.020905,1.000000 362.041779,1.000000 374.463745,1.336316 
	C373.639130,3.219125 372.591461,4.958175 371.159760,6.281766 
	C359.325531,17.222137 347.408417,28.072779 335.539215,38.975388 
	C318.896454,54.262756 302.234436,69.529457 285.651978,84.882027 
	C266.382446,102.722404 247.199402,120.656128 227.957581,138.526474 
	C223.209305,142.936310 218.377380,147.256058 213.586212,151.619736 
	C200.199234,163.812256 186.776901,175.966675 173.499084,188.276932 
	C172.476517,189.224976 172.475098,191.274414 171.535370,192.883743 
	C165.296066,192.971924 159.518463,192.899658 153.745422,193.030014 
	C148.158188,193.156158 145.239517,196.087555 145.019760,201.615387 
	C144.882278,205.074081 144.876846,208.538010 144.441162,212.005157 
	C140.919540,213.731461 137.312912,214.942535 134.708023,217.273209 
	C128.199585,223.096542 122.242722,229.530701 115.885345,235.529861 
	C107.972107,242.997192 99.879120,250.274033 91.863091,257.632385 
	C91.250046,258.195129 90.644569,258.767059 90.013931,259.309540 
	C83.999443,264.483459 77.858177,269.518036 71.998878,274.861908 
	C66.771309,279.629578 61.922913,284.810242 56.781223,289.675537 
	C51.010674,295.135895 45.128506,300.479706 39.240047,305.813660 
	C33.138481,311.340668 26.933813,316.753967 20.843912,322.293579 
	C15.598787,327.064789 10.519202,332.020386 5.201299,336.707092 
	C4.199281,337.590149 2.420399,337.591675 1.000000,338.000000 
	C1.000000,329.645782 1.000000,321.291534 1.368109,312.449402 
	C3.379353,311.231049 5.312478,310.835785 6.613657,309.710052 
	C11.344587,305.617096 15.859772,301.275085 20.464144,297.035461 
	C28.457283,289.675568 36.464298,282.330688 44.443432,274.955627 
	C45.539196,273.942841 46.466560,272.749603 47.543537,271.714447 
	C53.356647,266.127014 59.151127,260.519135 65.030983,255.002457 
	C71.988693,248.474487 79.009003,242.012833 86.035645,235.558868 
	C91.749504,230.310684 97.488701,225.089493 103.260468,219.905075 
	C109.636444,214.177963 116.135986,208.586563 122.445244,202.787567 
	C128.500885,197.221664 134.290451,191.365585 140.364914,185.821075 
	C146.573456,180.154205 153.048996,174.780273 159.275665,169.132584 
	C161.470718,167.141617 163.082794,164.503510 165.295486,162.537216 
	C171.452667,157.065643 177.880341,151.897949 184.024780,146.412659 
	C191.881500,139.398773 199.572784,132.199341 207.316299,125.059196 
	C208.414108,124.046906 209.373932,122.886414 210.449509,121.848274 
	C216.251205,116.248558 221.955612,110.541077 227.913025,105.111549 
	C234.123901,99.450981 240.662582,94.151360 246.915573,88.535400 
	C254.751465,81.497787 262.448273,74.305107 270.189209,67.162140 
	C271.287201,66.148956 272.274963,65.017365 273.348938,63.976894 
	C279.140320,58.366093 284.881744,52.701778 290.756958,47.179943 
	C298.071899,40.305012 305.438538,33.482151 312.899506,26.766415 
	C318.897980,21.367128 325.287323,16.384657 331.071808,10.772563 
	C333.889465,8.038908 335.721710,4.289568 338.000000,0.999999 
z"/>
<path fill="#24D2EA" opacity="1.000000" stroke="none" 
	d="
M513.000000,241.531342 
	C510.415131,243.753113 507.560699,245.213638 505.289032,247.306717 
	C490.265961,261.148865 475.409271,275.171387 460.418274,289.048645 
	C443.839966,304.395264 427.174866,319.648102 410.549652,334.944061 
	C393.801971,350.352753 377.054077,365.761200 360.311523,381.175446 
	C343.453674,396.695801 326.606720,412.228058 309.746765,427.746124 
	C288.846497,446.982971 267.938019,466.210907 247.032379,485.441956 
	C238.841766,492.976501 230.622177,500.479980 222.485336,508.072174 
	C221.180832,509.289368 220.242676,510.899109 219.067596,512.663696 
	C207.645767,513.000000 196.291550,513.000000 184.531860,512.652466 
	C184.928558,510.867065 185.468384,509.169281 186.584656,508.042633 
	C189.349152,505.252563 192.466675,502.815063 195.276154,500.066010 
	C198.578217,496.834900 201.518677,493.217316 204.947983,490.136902 
	C211.191238,484.528809 217.700897,479.218109 224.040192,473.715118 
	C224.894379,472.973572 225.318756,471.758209 226.095963,470.901794 
	C227.313156,469.560577 228.595047,468.261353 229.965561,467.078827 
	C236.321457,461.594666 242.718994,456.158752 249.092804,450.695312 
	C249.339493,450.483856 249.465637,450.136688 249.699356,449.904510 
	C255.539749,444.103271 261.200897,438.104340 267.284973,432.570465 
	C273.480042,426.935608 280.182495,421.862091 286.475433,416.329590 
	C288.810791,414.276398 290.378845,411.353058 292.705688,409.286926 
	C298.985931,403.710358 305.564423,398.470093 311.856323,392.906097 
	C314.063049,390.954620 315.557343,388.197937 317.762756,386.244507 
	C324.050049,380.675720 330.612274,375.417389 336.902008,369.851196 
	C339.108002,367.898956 340.619415,365.162201 342.824036,363.207855 
	C349.104584,357.640289 355.606628,352.323334 361.946899,346.821808 
	C362.922821,345.975006 363.414642,344.594421 364.291656,343.603485 
	C365.383392,342.369904 366.599060,341.235168 367.836884,340.143555 
	C374.509033,334.259460 381.328735,328.536102 387.854523,322.494781 
	C393.530212,317.240417 398.776703,311.524689 404.403473,306.214813 
	C412.413361,298.656036 420.590179,291.273895 428.718323,283.841095 
	C429.569855,283.062408 430.579803,282.458344 431.505798,281.759399 
	C433.221802,280.464264 435.085175,279.318207 436.614014,277.829498 
	C442.388153,272.206879 448.043121,266.462006 453.770386,260.790833 
	C454.471802,260.096252 455.372253,259.607635 456.126587,258.960693 
	C462.498718,253.495590 468.862000,248.020126 475.212494,242.529861 
	C475.581299,242.211029 475.767761,241.687881 476.119751,241.341934 
	C481.873352,235.687759 487.605469,230.011002 493.417664,224.417511 
	C496.479218,221.471146 499.487122,218.407349 502.885040,215.890427 
	C506.001312,213.582153 509.608887,211.937210 513.000000,210.000000 
	C513.000000,220.354233 513.000000,230.708450 513.000000,241.531342 
z"/>
<path fill="#24F1C3" opacity="1.000000" stroke="none" 
	d="
M237.531342,1.000003 
	C235.685669,3.758122 233.605362,6.762611 231.011536,9.226480 
	C224.222778,15.675055 217.247757,21.929901 210.275146,28.181837 
	C203.649612,34.122559 196.857574,39.878929 190.279938,45.871323 
	C184.809387,50.855122 179.622910,56.150185 174.167480,61.151241 
	C167.241516,67.500343 160.159241,73.678688 153.166916,79.955772 
	C148.623627,84.034317 144.049789,88.082924 139.617279,92.279732 
	C133.999451,97.598831 128.568588,103.115402 122.951088,108.434853 
	C117.076401,113.997849 111.080261,119.432732 105.129257,124.914970 
	C98.595131,130.934418 92.108543,137.007095 85.497063,142.940491 
	C78.628601,149.104492 71.594429,155.083832 64.724358,161.246078 
	C62.889420,162.891983 61.538109,165.075653 59.709305,166.730042 
	C52.986206,172.811996 46.067673,178.679413 39.392258,184.812134 
	C33.571407,190.159775 28.116903,195.908920 22.249508,201.202438 
	C15.542574,207.253372 8.558211,212.996796 1.347204,218.936920 
	C1.000000,203.979111 1.000000,188.958206 1.363763,173.448898 
	C2.366740,172.793518 3.194448,172.826660 3.616439,172.429108 
	C8.638970,167.697449 13.580512,162.879898 18.590601,158.134842 
	C20.266611,156.547485 22.093309,155.120392 23.822315,153.587540 
	C26.165482,151.510178 28.482954,149.403793 30.807629,147.305603 
	C32.631493,145.659454 34.457729,144.015747 36.268101,142.354813 
	C38.456802,140.346786 40.652180,138.345200 42.805386,136.299454 
	C48.414158,130.970596 53.897076,125.504105 59.624790,120.306961 
	C66.207611,114.333908 73.054352,108.652359 79.668449,102.712784 
	C81.748665,100.844711 83.265656,98.346802 85.356323,96.493530 
	C91.511627,91.037170 97.897842,85.840927 104.039925,80.370255 
	C106.374268,78.291077 108.099983,75.528862 110.433060,73.447914 
	C116.571442,67.972870 122.961861,62.780445 129.102112,57.307423 
	C131.435608,55.227493 133.174332,52.480564 135.506485,50.398773 
	C141.642548,44.921440 148.042755,39.739937 154.176239,34.259827 
	C162.020935,27.250797 169.880081,20.240774 177.387375,12.878720 
	C181.000183,9.335814 183.820709,4.984976 187.000000,0.999999 
	C203.687561,1.000000 220.375122,1.000000 237.531342,1.000003 
z"/>
<path fill="#24EBCA" opacity="1.000000" stroke="none" 
	d="
M1.000001,263.468658 
	C6.043957,259.230927 11.108578,255.488815 16.105097,251.657852 
	C16.713476,251.191391 16.797991,250.064117 17.391932,249.552872 
	C23.324596,244.446350 29.311646,239.402969 35.291615,234.351562 
	C35.540768,234.141113 35.924995,234.082672 36.156048,233.859833 
	C42.030178,228.194626 47.871803,222.495529 53.768265,216.853729 
	C55.646027,215.057037 57.645004,213.384460 59.630692,211.704956 
	C60.128269,211.284119 60.899391,211.169495 61.358192,210.722565 
	C67.321907,204.913147 73.241875,199.058807 79.197052,193.240570 
	C80.838181,191.637177 82.528015,190.079514 84.263443,188.579453 
	C84.743034,188.164917 85.606461,188.179642 86.058090,187.749786 
	C92.212639,181.891953 98.333649,175.998734 104.433159,170.083527 
	C104.894165,169.636459 105.008751,168.814758 105.488235,168.406845 
	C111.451828,163.333588 117.451714,158.302979 123.449982,153.270615 
	C123.700508,153.060440 124.079796,152.994751 124.309601,152.770157 
	C130.263687,146.950897 136.192474,141.105682 142.159500,135.299774 
	C143.675079,133.825134 145.270370,132.425919 146.901672,131.080078 
	C147.529800,130.561859 148.498337,130.433716 149.077240,129.881821 
	C154.983566,124.251022 160.823624,118.550743 166.723404,112.912994 
	C168.602814,111.117043 170.593063,109.435753 172.561539,107.735497 
	C172.929688,107.417503 173.522186,107.347786 173.864929,107.013535 
	C180.181976,100.853134 186.478653,94.671844 192.768738,88.483879 
	C192.998230,88.258095 193.057068,87.850304 193.296097,87.643921 
	C199.099319,82.633736 204.950943,77.678986 210.713745,72.622932 
	C213.047073,70.575775 215.212646,68.334450 217.405624,66.132729 
	C217.860428,65.676094 217.977509,64.863022 218.454941,64.452042 
	C224.265564,59.450348 230.110840,54.488880 235.961990,49.534519 
	C236.335266,49.218472 236.913269,49.131641 237.257889,48.796230 
	C243.223923,42.989388 249.156311,37.147968 255.125671,31.344557 
	C256.642273,29.870111 258.205811,28.431669 259.855438,27.111166 
	C260.751129,26.394152 262.225403,26.213245 262.839233,25.359516 
	C269.187012,16.530827 280.066864,11.924878 284.931427,1.338649 
	C296.687561,1.000000 308.375122,1.000000 320.463745,1.336315 
	C315.954926,6.571109 311.187103,11.622434 306.109253,16.340042 
	C289.439209,31.827362 272.651825,47.188293 255.918655,62.607719 
	C238.695938,78.478264 221.492737,94.369972 204.264816,110.234833 
	C187.771271,125.423424 171.259933,140.592728 154.750870,155.764450 
	C138.364166,170.823715 121.966057,185.870575 105.581154,200.931808 
	C88.951401,216.218124 72.289062,231.469345 55.720047,246.821259 
	C40.364246,261.049072 25.157310,275.437714 9.772943,289.634308 
	C7.136023,292.067657 3.938529,293.893494 0.999997,296.000000 
	C1.000000,285.312439 1.000000,274.624878 1.000001,263.468658 
z"/>
<path fill="#24CBF2" opacity="1.000000" stroke="none" 
	d="
M272.468658,513.000000 
	C274.910797,509.683929 277.553406,506.074646 280.789856,503.114624 
	C286.979187,497.453918 293.627289,492.296844 299.860748,486.681793 
	C306.578247,480.630859 312.975586,474.226074 319.629822,468.103027 
	C325.711182,462.507080 332.027771,457.166382 338.097229,451.557922 
	C344.760345,445.400818 351.184357,438.984833 357.850830,432.831451 
	C364.616486,426.586548 371.645905,420.626434 378.380615,414.349335 
	C383.530365,409.549500 388.327057,404.372406 393.430603,399.520752 
	C395.581177,397.476379 398.213501,395.948242 400.460999,393.994690 
	C409.754364,385.916840 419.053314,377.842621 428.198761,369.598999 
	C431.251740,366.847076 433.717621,363.453217 436.687378,360.597717 
	C443.227325,354.309448 449.859650,348.114044 456.562317,341.999176 
	C463.039185,336.090271 469.714203,330.398407 476.186859,324.484955 
	C482.609955,318.616791 488.854065,312.553131 495.242340,306.646210 
	C500.887512,301.426361 506.623047,296.304199 512.659302,291.069458 
	C513.000000,305.354218 513.000000,319.708466 512.652954,334.594360 
	C510.870117,335.926880 509.209961,336.483307 508.031586,337.564728 
	C486.510559,357.315216 465.058380,377.140686 443.567535,396.924164 
	C431.724945,407.825867 419.791626,418.629333 407.981567,429.565948 
	C388.737946,447.386322 369.588257,465.308075 350.340363,483.123779 
	C344.864624,488.192108 338.985077,492.836090 333.659729,498.051453 
	C328.844727,502.766998 324.533417,507.996918 320.000000,513.000000 
	C304.312439,513.000000 288.624878,513.000000 272.468658,513.000000 
z"/>
<path fill="#24DBDF" opacity="1.000000" stroke="none" 
	d="
M513.000000,75.000000 
	C513.000000,75.444443 513.000000,75.888893 512.723145,76.335327 
	C512.175842,76.891678 511.905334,77.446030 511.634857,78.000374 
	C512.089905,78.000244 512.544922,78.000122 513.000000,78.000000 
	C513.000000,88.020897 513.000000,98.041786 512.660950,108.600082 
	C507.824677,112.959648 503.252472,116.697723 498.849121,120.625160 
	C493.303802,125.571236 487.964722,130.748779 482.411560,135.685760 
	C476.131042,141.269394 469.558472,146.531448 463.396423,152.239410 
	C457.349152,157.841049 451.771179,163.946701 445.782013,169.614227 
	C438.131073,176.854279 430.322296,183.930191 422.482452,190.966461 
	C419.412842,193.721420 415.894562,195.985901 412.896637,198.809341 
	C406.893555,204.463028 401.149323,210.390533 395.216431,216.120346 
	C392.032440,219.195328 388.914307,222.422058 385.342926,224.991653 
	C380.715027,228.321350 375.664856,231.064163 370.545898,233.830505 
	C364.064789,221.112717 357.834290,208.624054 351.966766,196.053421 
	C356.560638,191.061203 362.366425,188.092072 366.693878,182.899765 
	C371.183655,177.512680 377.466278,173.265289 382.373596,167.870560 
	C382.579620,167.644073 383.019043,167.642273 383.258453,167.431885 
	C385.682648,165.301559 388.135468,163.200394 390.488922,160.993622 
	C396.254974,155.587051 401.970001,150.126022 407.719818,144.702042 
	C407.947052,144.487686 408.380493,144.496185 408.617096,144.286957 
	C415.027130,138.618118 421.556732,133.075378 427.784546,127.212280 
	C433.649872,121.690392 439.192291,115.825691 444.889923,110.124962 
	C445.113373,109.901421 445.519318,109.867363 445.763092,109.656021 
	C452.463379,103.846497 459.312134,98.195595 465.797791,92.154984 
	C471.475159,86.867279 476.739899,81.136749 482.201263,75.616035 
	C482.421448,75.393486 482.802399,75.339157 483.085602,75.168472 
	C490.353821,70.787727 496.345520,65.314415 499.016449,56.892830 
	C499.170288,56.407761 500.391846,56.261314 501.437134,56.098579 
	C506.133209,60.571045 508.488190,65.911232 510.004700,71.788429 
	C510.051208,71.968674 508.958282,77.062637 513.000000,75.000000 
z"/>
<path fill="#24E3D5" opacity="1.000000" stroke="none" 
	d="
M437.000000,1.000000 
	C437.444458,1.000000 437.888885,1.000000 438.327850,1.201509 
	C439.868439,2.563095 441.414520,3.723172 443.001648,5.190066 
	C442.540894,7.057882 442.039124,8.618882 441.494934,10.311870 
	C442.993195,10.560205 444.329742,10.781739 447.389008,11.288819 
	C382.636261,70.967728 318.896851,129.712677 255.157455,188.457642 
	C255.338440,189.085861 255.519409,189.714096 255.700394,190.342331 
	C262.597107,189.648239 269.502350,189.023849 276.381195,188.183563 
	C277.392395,188.060028 278.358124,186.999298 279.209961,186.223999 
	C287.017151,179.118362 294.800568,171.986572 302.572876,164.842773 
	C303.551331,163.943420 304.397003,162.901184 305.352631,161.975143 
	C311.149017,156.358307 316.900208,150.693008 322.780212,145.164825 
	C330.101227,138.281830 337.509705,131.491241 344.923492,124.707779 
	C350.405273,119.692032 355.952301,114.747505 361.476807,109.778488 
	C367.854919,104.041702 374.319214,98.397835 380.599701,92.556259 
	C386.643127,86.935196 392.374298,80.975716 398.473114,75.417786 
	C404.688812,69.753304 411.268250,64.489685 417.537415,58.881748 
	C425.023804,52.184971 432.354614,45.314156 439.740417,38.505318 
	C440.961945,37.379200 442.130585,36.194794 443.305786,35.019478 
	C448.417999,29.906878 453.474640,24.736565 458.690277,19.731939 
	C459.386566,19.063833 460.876434,19.222763 462.278381,19.187998 
	C465.572754,24.568951 460.792480,26.246119 458.204285,28.804960 
	C455.404236,31.573231 452.399200,34.134212 449.483154,36.785152 
	C447.892151,38.231495 446.296631,39.672947 444.709534,41.123562 
	C442.040039,43.563580 439.372192,46.005470 436.710327,48.453827 
	C435.008484,50.019176 433.340668,51.622139 431.619354,53.165619 
	C425.243561,58.882645 418.767456,64.490959 412.491241,70.314919 
	C406.818268,75.579079 401.492859,81.220932 395.766632,86.423744 
	C389.307587,92.292374 382.418976,97.690506 376.001862,103.602287 
	C370.191833,108.954819 364.775665,114.734062 359.155701,120.294739 
	C358.454956,120.988098 357.518829,121.438011 356.779266,122.098709 
	C354.082275,124.508095 351.424683,126.961540 348.747803,129.393463 
	C346.916901,131.056808 345.080048,132.713654 343.243256,134.370483 
	C341.167145,136.243164 339.064941,138.087662 337.017242,139.990845 
	C335.205353,141.674835 333.475342,143.446823 331.668457,145.136429 
	C329.026917,147.606522 326.348053,150.036697 323.686920,152.485870 
	C321.985596,154.051666 320.295105,155.629318 318.586212,157.186768 
	C316.032410,159.514236 313.469147,161.831375 310.905029,164.147507 
	C309.319397,165.579788 307.731354,167.009537 306.132477,168.426987 
	C303.908539,170.398544 301.659485,172.341888 299.446930,174.326035 
	C297.004913,176.515915 294.669098,178.830963 292.148560,180.924820 
	C288.301422,184.120682 284.154327,187.051147 283.735291,192.880005 
	C260.544586,192.904785 237.772263,192.858627 215.005585,192.442993 
	C215.424225,190.846329 215.481903,189.249496 216.309708,188.453781 
	C220.698624,184.234940 225.304123,180.242554 229.791016,176.124268 
	C236.941986,169.560684 244.035736,162.934677 251.197006,156.382416 
	C256.920319,151.145813 262.693970,145.963913 268.471191,140.786652 
	C274.483276,135.398880 280.606781,130.132645 286.534180,124.653854 
	C292.821198,118.842667 298.830994,112.730087 305.154846,106.960678 
	C310.995758,101.631866 317.181030,96.681694 323.054657,91.387268 
	C331.125824,84.112007 339.054932,76.678833 347.028198,69.295280 
	C352.107330,64.591820 357.214020,59.915894 362.203644,55.118675 
	C368.148590,49.402954 373.916107,43.501884 379.895081,37.822788 
	C382.274567,35.562630 385.122192,33.801937 387.569763,31.605551 
	C394.428558,25.450720 401.209381,19.208336 407.981781,12.958087 
	C411.518158,9.694392 416.363678,7.156652 415.000000,1.000000 
	C421.687653,1.000000 428.375275,1.000000 435.200500,1.276657 
	C435.892059,1.823494 436.446014,2.093675 437.000000,2.363858 
	C437.000000,1.909240 437.000000,1.454620 437.000000,1.000000 
z"/>
<path fill="#24E6D1" opacity="1.000000" stroke="none" 
	d="
M414.531342,1.000000 
	C416.363678,7.156652 411.518158,9.694392 407.981781,12.958087 
	C401.209381,19.208336 394.428558,25.450720 387.569763,31.605551 
	C385.122192,33.801937 382.274567,35.562630 379.895081,37.822788 
	C373.916107,43.501884 368.148590,49.402954 362.203644,55.118675 
	C357.214020,59.915894 352.107330,64.591820 347.028198,69.295280 
	C339.054932,76.678833 331.125824,84.112007 323.054657,91.387268 
	C317.181030,96.681694 310.995758,101.631866 305.154846,106.960678 
	C298.830994,112.730087 292.821198,118.842667 286.534180,124.653854 
	C280.606781,130.132645 274.483276,135.398880 268.471191,140.786652 
	C262.693970,145.963913 256.920319,151.145813 251.197006,156.382416 
	C244.035736,162.934677 236.941986,169.560684 229.791016,176.124268 
	C225.304123,180.242554 220.698624,184.234940 216.309708,188.453781 
	C215.481903,189.249496 215.424225,190.846329 214.541687,192.514587 
	C200.047791,192.907761 186.023422,192.859848 171.999054,192.811935 
	C172.475098,191.274414 172.476517,189.224976 173.499084,188.276932 
	C186.776901,175.966675 200.199234,163.812256 213.586212,151.619736 
	C218.377380,147.256058 223.209305,142.936310 227.957581,138.526474 
	C247.199402,120.656128 266.382446,102.722404 285.651978,84.882027 
	C302.234436,69.529457 318.896454,54.262756 335.539215,38.975388 
	C347.408417,28.072779 359.325531,17.222137 371.159760,6.281766 
	C372.591461,4.958175 373.639130,3.219125 374.932404,1.336316 
	C388.020905,1.000000 401.041779,1.000000 414.531342,1.000000 
z"/>
<path fill="#24D7E4" opacity="1.000000" stroke="none" 
	d="
M317.000031,337.188110 
	C316.120178,338.876617 315.551483,340.856293 314.298340,342.195526 
	C311.300110,345.399750 308.063538,348.397400 304.770844,351.305939 
	C299.025726,356.380676 293.180115,361.342194 287.339203,366.307129 
	C286.463257,367.051636 285.221680,367.396179 284.425415,368.199493 
	C278.548706,374.128052 272.756500,380.140198 266.898407,386.087341 
	C265.983521,387.016144 264.918457,387.822449 263.831573,388.548859 
	C262.868164,389.192749 261.582306,389.442688 260.774750,390.216949 
	C254.769791,395.974792 248.846481,401.817810 242.902939,407.639648 
	C241.618683,408.897583 240.389053,410.212830 239.076874,411.440369 
	C236.466507,413.882355 233.806839,416.271637 231.193695,418.710724 
	C230.839005,419.041748 230.713333,419.625336 230.349487,419.938354 
	C223.913849,425.474609 217.458069,430.987427 211.002991,436.501068 
	C210.879364,436.606689 210.684555,436.632355 210.568665,436.743164 
	C204.666321,442.385803 198.779114,448.044342 192.865143,453.674774 
	C190.978104,455.471344 189.034714,457.209778 187.084961,458.938599 
	C186.722977,459.259521 186.118134,459.315155 185.775391,459.647827 
	C179.814667,465.432190 173.875565,471.238892 167.941925,477.051086 
	C167.710587,477.277679 167.636276,477.672211 167.395279,477.880127 
	C161.460388,483.001221 155.513275,488.108124 149.564255,493.212830 
	C149.441452,493.318237 149.221176,493.329407 149.129135,493.448547 
	C143.777527,500.374817 135.283249,504.281219 131.020081,512.635315 
	C117.979103,513.000000 104.958214,513.000000 91.526924,512.732361 
	C91.320473,512.009766 91.817619,511.280060 91.685982,511.139557 
	C86.967354,506.104309 91.675606,503.874756 94.664764,501.259216 
	C100.736168,495.946747 107.050171,490.901825 112.969749,485.428192 
	C118.771164,480.063782 124.190926,474.287689 129.820953,468.735626 
	C130.637360,467.930511 131.755936,467.439880 132.624542,466.678101 
	C135.101395,464.505981 137.523285,462.271088 139.963150,460.056915 
	C142.033752,458.177856 144.104736,456.299164 146.165558,454.409424 
	C148.107651,452.628571 150.052933,450.850647 151.966858,449.039734 
	C153.764145,447.339172 155.496353,445.569458 157.303711,443.879944 
	C159.945953,441.409912 162.622223,438.976044 165.298309,436.542511 
	C167.128632,434.878143 168.989395,433.247253 170.825684,431.589417 
	C172.901093,429.715668 174.980515,427.845825 177.028000,425.941803 
	C178.839752,424.257019 180.586212,422.501770 182.404388,420.824158 
	C184.944107,418.480835 187.526077,416.183350 190.085449,413.861267 
	C192.037018,412.090607 193.981918,410.312622 195.929031,408.537079 
	C198.244537,406.425507 200.572449,404.327240 202.869644,402.195923 
	C204.436050,400.742706 205.939880,399.221985 207.505920,397.768372 
	C210.038467,395.417480 212.603195,393.101318 215.146622,390.762115 
	C216.967651,389.087341 218.763794,387.385468 220.593109,385.719910 
	C223.029434,383.501678 225.513977,381.335785 227.927017,379.092804 
	C229.738922,377.408539 231.409622,375.570038 233.249466,373.918640 
	C239.623611,368.197632 246.050430,362.535370 252.444016,356.835907 
	C255.013840,354.545044 257.609467,352.278076 260.087402,349.890320 
	C264.434143,345.701752 268.699127,341.428375 273.462128,337.117615 
	C288.283936,337.092499 302.641998,337.140289 317.000031,337.188110 
z"/>
<path fill="#24F6BD" opacity="1.000000" stroke="none" 
	d="
M75.000000,1.000000 
	C75.444443,1.000000 75.888893,1.000000 76.335266,1.276423 
	C76.891426,1.823298 77.445656,2.093749 77.999878,2.364201 
	C77.999924,1.909468 77.999962,1.454734 78.000000,1.000000 
	C100.354225,1.000000 122.708458,1.000000 145.512344,1.360834 
	C144.809021,3.480058 143.957321,5.568174 142.453354,6.942466 
	C133.753326,14.892347 124.764938,22.529119 116.132950,30.550365 
	C106.196236,39.784004 96.667267,49.457111 86.710419,58.668259 
	C72.841347,71.498619 58.672802,84.004761 44.758492,96.786888 
	C33.746040,106.903290 23.025002,117.338249 11.953536,127.388260 
	C8.689083,130.351532 4.672110,132.485809 0.999999,135.000000 
	C1.000000,116.312439 1.000000,97.624878 1.276547,78.799744 
	C1.823329,78.108086 2.093565,77.553986 2.363800,76.999893 
	C1.909200,76.999924 1.454600,76.999962 1.000000,77.000000 
	C1.000000,76.555557 1.000000,76.111107 1.206311,75.674210 
	C2.024976,75.025169 2.894800,74.472038 3.207098,73.694870 
	C4.980440,69.281837 6.320979,64.668106 8.409165,60.417614 
	C9.848427,57.488003 12.182248,54.973965 14.251447,52.382114 
	C21.068884,43.842678 24.349232,32.680550 33.609638,25.997999 
	C35.971626,24.293528 39.022484,23.565866 41.470234,21.954138 
	C51.265167,15.504636 60.045986,7.357248 71.760803,4.041847 
	C72.008705,3.971688 76.892838,4.886013 75.000000,1.000000 
z"/>
<path fill="#24E2D5" opacity="1.000000" stroke="none" 
	d="
M1.000000,436.000000 
	C1.000000,426.312439 1.000000,416.624878 1.363545,406.448914 
	C7.623023,400.691132 13.629195,395.538910 19.385843,390.121460 
	C25.970768,383.924530 32.333424,377.491425 38.797562,371.165955 
	C38.911678,371.054230 39.109543,371.030609 39.231052,370.923584 
	C41.260841,369.135529 43.321056,367.379974 45.303059,365.540192 
	C51.582634,359.711334 57.823261,353.840515 64.112747,348.022491 
	C64.575500,347.594452 65.385925,347.559448 65.898842,347.165009 
	C67.174820,346.183838 68.446114,345.175262 69.588898,344.045807 
	C75.792542,337.914398 81.954933,331.741272 88.141151,325.592194 
	C88.370926,325.363831 88.732643,325.272278 88.978264,325.055176 
	C95.213135,319.545074 101.545349,314.139404 107.640472,308.478516 
	C113.898674,302.666168 119.911743,296.590332 126.071243,290.670532 
	C126.649048,290.115234 127.591492,289.953308 128.219177,289.433228 
	C129.811417,288.113922 131.551392,286.877533 132.818146,285.279694 
	C135.948120,281.331543 138.766266,277.069122 144.884186,278.463440 
	C144.924240,295.951080 144.892166,312.974854 144.508270,330.020081 
	C142.882294,330.751678 141.428574,331.259491 140.363052,332.204803 
	C133.402527,338.380127 126.459747,344.578613 119.634804,350.902924 
	C100.366966,368.757385 81.168587,386.686737 61.920124,404.562134 
	C57.170380,408.973083 52.324333,413.280151 47.539696,417.653717 
	C36.990776,427.296356 26.340483,436.834045 16.037437,446.732910 
	C14.576154,448.136902 14.951859,451.360413 14.238078,453.667786 
	C13.770213,455.180206 12.871708,456.559387 12.012569,457.673706 
	C7.441417,453.214264 5.702461,447.769226 3.977106,442.216492 
	C3.882445,441.911896 5.042653,436.934204 1.000000,439.000000 
	C1.000000,438.555542 1.000000,438.111115 1.276607,437.664276 
	C1.823385,437.108093 2.093556,436.554260 2.363727,436.000458 
	C1.909151,436.000305 1.454576,436.000153 1.000000,436.000000 
z"/>
<path fill="#24C9F5" opacity="1.000000" stroke="none" 
	d="
M320.468658,513.000000 
	C324.533417,507.996918 328.844727,502.766998 333.659729,498.051453 
	C338.985077,492.836090 344.864624,488.192108 350.340363,483.123779 
	C369.588257,465.308075 388.737946,447.386322 407.981567,429.565948 
	C419.791626,418.629333 431.724945,407.825867 443.567535,396.924164 
	C465.058380,377.140686 486.510559,357.315216 508.031586,337.564728 
	C509.209961,336.483307 510.870117,335.926880 512.652954,335.063049 
	C513.000000,349.020905 513.000000,363.041779 512.631897,377.550537 
	C505.710022,383.389496 498.964813,388.525940 492.657196,394.152893 
	C486.527710,399.620941 480.997192,405.756561 474.927002,411.295929 
	C468.862793,416.829803 462.285156,421.802795 456.247406,427.363464 
	C450.326569,432.816406 444.819489,438.717407 439.087646,444.377960 
	C438.034332,445.418213 436.720642,446.189789 435.619171,447.187042 
	C429.045288,453.138641 422.482452,459.102692 415.954163,465.104126 
	C414.375519,466.555389 413.035980,468.272125 411.423523,469.680206 
	C405.233551,475.085449 398.823303,480.248047 392.790131,485.820465 
	C386.998627,491.169739 381.590393,496.932770 375.965363,502.464813 
	C375.152344,503.264435 373.888885,503.629669 373.144073,504.470642 
	C370.686066,507.245880 368.370361,510.147156 366.000000,513.000000 
	C350.979095,513.000000 335.958221,513.000000 320.468658,513.000000 
z"/>
<path fill="#24D7E4" opacity="1.000000" stroke="none" 
	d="
M370.796448,234.059631 
	C375.664856,231.064163 380.715027,228.321350 385.342926,224.991653 
	C388.914307,222.422058 392.032440,219.195328 395.216431,216.120346 
	C401.149323,210.390533 406.893555,204.463028 412.896637,198.809341 
	C415.894562,195.985901 419.412842,193.721420 422.482452,190.966461 
	C430.322296,183.930191 438.131073,176.854279 445.782013,169.614227 
	C451.771179,163.946701 457.349152,157.841049 463.396423,152.239410 
	C469.558472,146.531448 476.131042,141.269394 482.411560,135.685760 
	C487.964722,130.748779 493.303802,125.571236 498.849121,120.625160 
	C503.252472,116.697723 507.824677,112.959648 512.660950,109.068741 
	C513.000000,125.687561 513.000000,142.375122 513.000000,159.531342 
	C511.342560,160.996124 509.552032,161.826141 508.056427,163.024307 
	C505.273468,165.253784 502.585999,167.617035 499.995056,170.068619 
	C494.057312,175.687012 488.198730,181.389130 482.314178,187.063690 
	C480.424683,188.885742 478.573181,190.747467 476.671021,192.556091 
	C473.950073,195.143188 471.212738,197.713501 468.454071,200.260269 
	C467.137115,201.476028 465.810425,202.694733 464.382233,203.771622 
	C463.462982,204.464737 462.026093,204.652359 461.378052,205.494873 
	C457.018250,211.162994 451.761139,215.763184 445.910095,219.861649 
	C442.485138,222.260696 439.604370,225.447220 436.536713,228.340897 
	C435.219391,229.583527 434.111633,231.047806 432.798828,232.295883 
	C430.209564,234.757477 427.557983,237.154495 424.896393,239.538254 
	C424.411346,239.972687 423.657227,240.115234 423.194366,240.564606 
	C417.800629,245.800766 412.483093,251.116104 407.048279,256.308868 
	C404.694061,258.558228 402.105713,260.561462 399.642853,262.698547 
	C398.151978,263.992218 396.244507,265.067108 395.308594,266.692047 
	C391.921295,272.573181 385.962677,274.832764 380.215759,277.534424 
	C380.487915,276.027893 380.903442,274.731445 381.648651,273.665436 
	C385.728180,267.829651 385.254181,262.321381 381.714447,256.202911 
	C377.602448,249.095291 374.395966,241.463776 370.796448,234.059631 
z"/>
<path fill="#24F3C0" opacity="1.000000" stroke="none" 
	d="
M0.999999,135.468658 
	C4.672110,132.485809 8.689083,130.351532 11.953536,127.388260 
	C23.025002,117.338249 33.746040,106.903290 44.758492,96.786888 
	C58.672802,84.004761 72.841347,71.498619 86.710419,58.668259 
	C96.667267,49.457111 106.196236,39.784004 116.132950,30.550365 
	C124.764938,22.529119 133.753326,14.892347 142.453354,6.942466 
	C143.957321,5.568174 144.809021,3.480058 145.981003,1.360834 
	C159.354233,1.000000 172.708450,1.000000 186.531342,0.999999 
	C183.820709,4.984976 181.000183,9.335814 177.387375,12.878720 
	C169.880081,20.240774 162.020935,27.250797 154.176239,34.259827 
	C148.042755,39.739937 141.642548,44.921440 135.506485,50.398773 
	C133.174332,52.480564 131.435608,55.227493 129.102112,57.307423 
	C122.961861,62.780445 116.571442,67.972870 110.433060,73.447914 
	C108.099983,75.528862 106.374268,78.291077 104.039925,80.370255 
	C97.897842,85.840927 91.511627,91.037170 85.356323,96.493530 
	C83.265656,98.346802 81.748665,100.844711 79.668449,102.712784 
	C73.054352,108.652359 66.207611,114.333908 59.624790,120.306961 
	C53.897076,125.504105 48.414158,130.970596 42.805386,136.299454 
	C40.652180,138.345200 38.456802,140.346786 36.268101,142.354813 
	C34.457729,144.015747 32.631493,145.659454 30.807629,147.305603 
	C28.482954,149.403793 26.165482,151.510178 23.822315,153.587540 
	C22.093309,155.120392 20.266611,156.547485 18.590601,158.134842 
	C13.580512,162.879898 8.638970,167.697449 3.616439,172.429108 
	C3.194448,172.826660 2.366740,172.793518 1.363763,172.980240 
	C1.000000,160.645767 1.000000,148.291550 0.999999,135.468658 
z"/>
<path fill="#24EACC" opacity="1.000000" stroke="none" 
	d="
M0.999997,296.466858 
	C3.938529,293.893494 7.136023,292.067657 9.772943,289.634308 
	C25.157310,275.437714 40.364246,261.049072 55.720047,246.821259 
	C72.289062,231.469345 88.951401,216.218124 105.581154,200.931808 
	C121.966057,185.870575 138.364166,170.823715 154.750870,155.764450 
	C171.259933,140.592728 187.771271,125.423424 204.264816,110.234833 
	C221.492737,94.369972 238.695938,78.478264 255.918655,62.607719 
	C272.651825,47.188293 289.439209,31.827362 306.109253,16.340042 
	C311.187103,11.622434 315.954926,6.571109 320.932373,1.336315 
	C326.354919,1.000000 331.709869,1.000000 337.532410,0.999999 
	C335.721710,4.289568 333.889465,8.038908 331.071808,10.772563 
	C325.287323,16.384657 318.897980,21.367128 312.899506,26.766415 
	C305.438538,33.482151 298.071899,40.305012 290.756958,47.179943 
	C284.881744,52.701778 279.140320,58.366093 273.348938,63.976894 
	C272.274963,65.017365 271.287201,66.148956 270.189209,67.162140 
	C262.448273,74.305107 254.751465,81.497787 246.915573,88.535400 
	C240.662582,94.151360 234.123901,99.450981 227.913025,105.111549 
	C221.955612,110.541077 216.251205,116.248558 210.449509,121.848274 
	C209.373932,122.886414 208.414108,124.046906 207.316299,125.059196 
	C199.572784,132.199341 191.881500,139.398773 184.024780,146.412659 
	C177.880341,151.897949 171.452667,157.065643 165.295486,162.537216 
	C163.082794,164.503510 161.470718,167.141617 159.275665,169.132584 
	C153.048996,174.780273 146.573456,180.154205 140.364914,185.821075 
	C134.290451,191.365585 128.500885,197.221664 122.445244,202.787567 
	C116.135986,208.586563 109.636444,214.177963 103.260468,219.905075 
	C97.488701,225.089493 91.749504,230.310684 86.035645,235.558868 
	C79.009003,242.012833 71.988693,248.474487 65.030983,255.002457 
	C59.151127,260.519135 53.356647,266.127014 47.543537,271.714447 
	C46.466560,272.749603 45.539196,273.942841 44.443432,274.955627 
	C36.464298,282.330688 28.457283,289.675568 20.464144,297.035461 
	C15.859772,301.275085 11.344587,305.617096 6.613657,309.710052 
	C5.312478,310.835785 3.379353,311.231049 1.368109,311.980774 
	C1.000000,306.977905 1.000000,301.955811 0.999997,296.466858 
z"/>
<path fill="#24C6F9" opacity="1.000000" stroke="none" 
	d="
M366.468689,513.000000 
	C368.370361,510.147156 370.686066,507.245880 373.144073,504.470642 
	C373.888885,503.629669 375.152344,503.264435 375.965363,502.464813 
	C381.590393,496.932770 386.998627,491.169739 392.790131,485.820465 
	C398.823303,480.248047 405.233551,475.085449 411.423523,469.680206 
	C413.035980,468.272125 414.375519,466.555389 415.954163,465.104126 
	C422.482452,459.102692 429.045288,453.138641 435.619171,447.187042 
	C436.720642,446.189789 438.034332,445.418213 439.087646,444.377960 
	C444.819489,438.717407 450.326569,432.816406 456.247406,427.363464 
	C462.285156,421.802795 468.862793,416.829803 474.927002,411.295929 
	C480.997192,405.756561 486.527710,399.620941 492.657196,394.152893 
	C498.964813,388.525940 505.710022,383.389496 512.631897,378.019226 
	C513.000000,391.687561 513.000000,405.375122 512.646362,419.557312 
	C507.169617,424.771851 501.968323,429.410187 496.943512,434.232452 
	C490.853210,440.077332 484.920868,446.086609 478.888550,451.992432 
	C478.434113,452.437317 477.641296,452.524475 477.151093,452.946655 
	C471.258362,458.021393 465.383240,463.116791 459.539215,468.247467 
	C459.066559,468.662384 458.967377,469.490906 458.508667,469.935150 
	C452.558014,475.697906 446.590454,481.443604 440.570190,487.133331 
	C440.008392,487.664276 438.995270,487.683960 438.304138,488.119446 
	C437.196411,488.817444 436.073547,489.553833 435.146973,490.466736 
	C429.006104,496.516937 423.008453,502.716278 416.753357,508.644653 
	C414.842621,510.455597 412.269684,511.567810 410.000000,513.000000 
	C395.645782,513.000000 381.291534,513.000000 366.468689,513.000000 
z"/>
<path fill="#24D3E9" opacity="1.000000" stroke="none" 
	d="
M513.000000,209.532394 
	C509.608887,211.937210 506.001312,213.582153 502.885040,215.890427 
	C499.487122,218.407349 496.479218,221.471146 493.417664,224.417511 
	C487.605469,230.011002 481.873352,235.687759 476.119751,241.341934 
	C475.767761,241.687881 475.581299,242.211029 475.212494,242.529861 
	C468.862000,248.020126 462.498718,253.495590 456.126587,258.960693 
	C455.372253,259.607635 454.471802,260.096252 453.770386,260.790833 
	C448.043121,266.462006 442.388153,272.206879 436.614014,277.829498 
	C435.085175,279.318207 433.221802,280.464264 431.505798,281.759399 
	C430.579803,282.458344 429.569855,283.062408 428.718323,283.841095 
	C420.590179,291.273895 412.413361,298.656036 404.403473,306.214813 
	C398.776703,311.524689 393.530212,317.240417 387.854523,322.494781 
	C381.328735,328.536102 374.509033,334.259460 367.836884,340.143555 
	C366.599060,341.235168 365.383392,342.369904 364.291656,343.603485 
	C363.414642,344.594421 362.922821,345.975006 361.946899,346.821808 
	C355.606628,352.323334 349.104584,357.640289 342.824036,363.207855 
	C340.619415,365.162201 339.108002,367.898956 336.902008,369.851196 
	C330.612274,375.417389 324.050049,380.675720 317.762756,386.244507 
	C315.557343,388.197937 314.063049,390.954620 311.856323,392.906097 
	C305.564423,398.470093 298.985931,403.710358 292.705688,409.286926 
	C290.378845,411.353058 288.810791,414.276398 286.475433,416.329590 
	C280.182495,421.862091 273.480042,426.935608 267.284973,432.570465 
	C261.200897,438.104340 255.539749,444.103271 249.699356,449.904510 
	C249.465637,450.136688 249.339493,450.483856 249.092804,450.695312 
	C242.718994,456.158752 236.321457,461.594666 229.965561,467.078827 
	C228.595047,468.261353 227.313156,469.560577 226.095963,470.901794 
	C225.318756,471.758209 224.894379,472.973572 224.040192,473.715118 
	C217.700897,479.218109 211.191238,484.528809 204.947983,490.136902 
	C201.518677,493.217316 198.578217,496.834900 195.276154,500.066010 
	C192.466675,502.815063 189.349152,505.252563 186.584656,508.042633 
	C185.468384,509.169281 184.928558,510.867065 184.063202,512.652466 
	C178.311966,513.000000 172.623917,513.000000 166.467957,513.000000 
	C167.879120,510.299713 169.367737,507.184052 171.712799,504.979370 
	C177.976089,499.091095 184.719620,493.716736 191.059998,487.906494 
	C197.142395,482.332550 202.894958,476.400360 208.910187,470.750946 
	C214.333099,465.657867 219.946960,460.768799 225.419678,455.727936 
	C232.828613,448.903595 240.184662,442.021820 247.560379,435.161469 
	C251.545685,431.454559 255.479507,427.690918 259.517395,424.042328 
	C265.161896,418.941925 270.956360,414.005890 276.550964,408.852173 
	C283.719116,402.248932 290.710632,395.454224 297.857697,388.827667 
	C303.068085,383.996735 308.455017,379.356445 313.677032,374.537750 
	C321.082886,367.703888 328.398315,360.772156 335.774445,353.905914 
	C339.760376,350.195526 343.745270,346.481689 347.812286,342.861176 
	C358.924194,332.969269 370.231354,323.291016 381.173340,313.215576 
	C391.379181,303.817993 401.112213,293.908478 411.252136,284.437103 
	C417.412659,278.682770 424.066772,273.459442 430.285461,267.764221 
	C436.497375,262.075165 442.421051,256.072418 448.512909,250.250900 
	C452.570923,246.372955 456.615509,242.473526 460.821198,238.759277 
	C467.015839,233.288422 473.491028,228.129486 479.583740,222.550461 
	C486.041138,216.637527 492.057129,210.242126 498.521851,204.337646 
	C502.888062,200.349792 507.697296,196.846985 512.654175,193.063599 
	C513.000000,198.354935 513.000000,203.709854 513.000000,209.532394 
z"/>
<path fill="#24E5D2" opacity="1.000000" stroke="none" 
	d="
M144.812073,277.999603 
	C138.766266,277.069122 135.948120,281.331543 132.818146,285.279694 
	C131.551392,286.877533 129.811417,288.113922 128.219177,289.433228 
	C127.591492,289.953308 126.649048,290.115234 126.071243,290.670532 
	C119.911743,296.590332 113.898674,302.666168 107.640472,308.478516 
	C101.545349,314.139404 95.213135,319.545074 88.978264,325.055176 
	C88.732643,325.272278 88.370926,325.363831 88.141151,325.592194 
	C81.954933,331.741272 75.792542,337.914398 69.588898,344.045807 
	C68.446114,345.175262 67.174820,346.183838 65.898842,347.165009 
	C65.385925,347.559448 64.575500,347.594452 64.112747,348.022491 
	C57.823261,353.840515 51.582634,359.711334 45.303059,365.540192 
	C43.321056,367.379974 41.260841,369.135529 39.231052,370.923584 
	C39.109543,371.030609 38.911678,371.054230 38.797562,371.165955 
	C32.333424,377.491425 25.970768,383.924530 19.385843,390.121460 
	C13.629195,395.538910 7.623023,400.691132 1.363545,405.980286 
	C1.000000,394.979095 1.000000,383.958221 1.337402,372.400208 
	C2.387088,371.452972 3.224957,371.170563 3.792238,370.612885 
	C9.429905,365.070587 14.868540,359.315735 20.672358,353.955414 
	C26.349405,348.712189 32.467331,343.949585 38.241661,338.807465 
	C44.022758,333.659332 49.665245,328.352325 55.282124,323.023895 
	C61.126507,317.479645 66.805122,311.760193 72.669548,306.237640 
	C80.090370,299.249451 87.603615,292.358795 95.119041,285.471954 
	C100.466011,280.572144 105.899857,275.767303 111.263390,270.885406 
	C117.952156,264.797241 124.450439,258.487518 131.337662,252.634308 
	C135.530228,249.071182 140.300888,246.188263 144.883911,243.463654 
	C144.907974,255.284851 144.860031,266.642242 144.812073,277.999603 
z"/>
<path fill="#24E7D0" opacity="1.000000" stroke="none" 
	d="
M144.811890,242.999817 
	C140.300888,246.188263 135.530228,249.071182 131.337662,252.634308 
	C124.450439,258.487518 117.952156,264.797241 111.263390,270.885406 
	C105.899857,275.767303 100.466011,280.572144 95.119041,285.471954 
	C87.603615,292.358795 80.090370,299.249451 72.669548,306.237640 
	C66.805122,311.760193 61.126507,317.479645 55.282124,323.023895 
	C49.665245,328.352325 44.022758,333.659332 38.241661,338.807465 
	C32.467331,343.949585 26.349405,348.712189 20.672358,353.955414 
	C14.868540,359.315735 9.429905,365.070587 3.792238,370.612885 
	C3.224957,371.170563 2.387088,371.452972 1.337402,371.931580 
	C1.000000,360.979095 1.000000,349.958221 1.000000,338.468658 
	C2.420399,337.591675 4.199281,337.590149 5.201299,336.707092 
	C10.519202,332.020386 15.598787,327.064789 20.843912,322.293579 
	C26.933813,316.753967 33.138481,311.340668 39.240047,305.813660 
	C45.128506,300.479706 51.010674,295.135895 56.781223,289.675537 
	C61.922913,284.810242 66.771309,279.629578 71.998878,274.861908 
	C77.858177,269.518036 83.999443,264.483459 90.013931,259.309540 
	C90.644569,258.767059 91.250046,258.195129 91.863091,257.632385 
	C99.879120,250.274033 107.972107,242.997192 115.885345,235.529861 
	C122.242722,229.530701 128.199585,223.096542 134.708023,217.273209 
	C137.312912,214.942535 140.919540,213.731461 144.513367,212.468979 
	C144.908325,222.951416 144.860092,232.975601 144.811890,242.999817 
z"/>
<path fill="#22DAE2" opacity="1.000000" stroke="none" 
	d="
M272.998352,337.190521 
	C268.699127,341.428375 264.434143,345.701752 260.087402,349.890320 
	C257.609467,352.278076 255.013840,354.545044 252.444016,356.835907 
	C246.050430,362.535370 239.623611,368.197632 233.249466,373.918640 
	C231.409622,375.570038 229.738922,377.408539 227.927017,379.092804 
	C225.513977,381.335785 223.029434,383.501678 220.593109,385.719910 
	C218.763794,387.385468 216.967651,389.087341 215.146622,390.762115 
	C212.603195,393.101318 210.038467,395.417480 207.505920,397.768372 
	C205.939880,399.221985 204.436050,400.742706 202.869644,402.195923 
	C200.572449,404.327240 198.244537,406.425507 195.929031,408.537079 
	C193.981918,410.312622 192.037018,412.090607 190.085449,413.861267 
	C187.526077,416.183350 184.944107,418.480835 182.404388,420.824158 
	C180.586212,422.501770 178.839752,424.257019 177.028000,425.941803 
	C174.980515,427.845825 172.901093,429.715668 170.825684,431.589417 
	C168.989395,433.247253 167.128632,434.878143 165.298309,436.542511 
	C162.622223,438.976044 159.945953,441.409912 157.303711,443.879944 
	C155.496353,445.569458 153.764145,447.339172 151.966858,449.039734 
	C150.052933,450.850647 148.107651,452.628571 146.165558,454.409424 
	C144.104736,456.299164 142.033752,458.177856 139.963150,460.056915 
	C137.523285,462.271088 135.101395,464.505981 132.624542,466.678101 
	C131.755936,467.439880 130.637360,467.930511 129.820953,468.735626 
	C124.190926,474.287689 118.771164,480.063782 112.969749,485.428192 
	C107.050171,490.901825 100.736168,495.946747 94.664764,501.259216 
	C91.675606,503.874756 86.967354,506.104309 91.685982,511.139557 
	C91.817619,511.280060 91.320473,512.009766 91.058266,512.732361 
	C86.975456,513.000000 82.950912,513.000000 78.795464,512.722900 
	C78.109192,512.174561 77.553825,511.903351 76.998444,511.632141 
	C76.998962,512.088135 76.999481,512.544067 77.000000,513.000000 
	C76.555557,513.000000 76.111107,513.000000 75.658539,512.776978 
	C75.022743,511.938019 74.496231,511.124146 73.748962,510.742371 
	C71.221024,509.450958 68.614838,508.312744 66.036690,506.734741 
	C68.799400,503.521912 71.389694,500.490143 74.364510,497.899994 
	C80.763008,492.328705 87.910179,487.499115 93.657951,481.345154 
	C96.846443,477.931274 99.608467,474.499451 103.840149,472.280212 
	C105.445740,471.438202 106.319107,469.260986 107.636536,467.791199 
	C108.938980,466.338287 110.294212,464.908783 111.776268,463.644897 
	C118.120056,458.235229 124.526772,452.899384 130.883438,447.504700 
	C131.372345,447.089783 131.574371,446.349335 132.038879,445.891144 
	C137.833054,440.175842 143.645889,434.479431 149.476242,428.801056 
	C149.818375,428.467865 150.419937,428.409271 150.785278,428.090515 
	C157.058578,422.617432 163.349091,417.163086 169.556122,411.615417 
	C172.208252,409.244965 174.656586,406.647827 177.238434,404.196777 
	C178.786194,402.727448 180.460831,401.390961 181.995850,399.909210 
	C187.955139,394.156830 193.726456,388.199127 199.863327,382.644379 
	C206.030228,377.062408 212.556458,371.877991 218.898453,366.487823 
	C219.386902,366.072754 219.585617,365.329376 220.050110,364.871613 
	C225.846985,359.159088 231.667572,353.470612 237.487274,347.781250 
	C237.601288,347.669739 237.770508,347.599304 237.926590,347.548492 
	C243.178986,345.839142 244.956253,342.429565 243.466934,337.118958 
	C253.619812,337.095306 263.309082,337.142914 272.998352,337.190521 
z"/>
<path fill="#24C3FB" opacity="1.000000" stroke="none" 
	d="
M410.468658,513.000000 
	C412.269684,511.567810 414.842621,510.455597 416.753357,508.644653 
	C423.008453,502.716278 429.006104,496.516937 435.146973,490.466736 
	C436.073547,489.553833 437.196411,488.817444 438.304138,488.119446 
	C438.995270,487.683960 440.008392,487.664276 440.570190,487.133331 
	C446.590454,481.443604 452.558014,475.697906 458.508667,469.935150 
	C458.967377,469.490906 459.066559,468.662384 459.539215,468.247467 
	C465.383240,463.116791 471.258362,458.021393 477.151093,452.946655 
	C477.641296,452.524475 478.434113,452.437317 478.888550,451.992432 
	C484.920868,446.086609 490.853210,440.077332 496.943512,434.232452 
	C501.968323,429.410187 507.169617,424.771851 512.646362,420.026001 
	C513.000000,425.022095 513.000000,430.044189 512.722534,435.201172 
	C512.174011,435.890503 511.902863,436.444916 511.631714,436.999329 
	C512.087830,436.999542 512.543884,436.999786 513.000000,437.000000 
	C513.000000,437.444458 513.000000,437.888885 512.789795,438.327942 
	C511.969727,438.976654 511.101624,439.527893 510.793396,440.302063 
	C509.220428,444.252869 508.080322,448.402832 506.214447,452.200928 
	C504.911438,454.853271 502.706268,457.068665 500.865814,459.449615 
	C493.887207,468.477509 490.049225,479.774353 481.064575,487.302429 
	C478.469391,489.476868 475.098450,490.724640 472.085541,492.401581 
	C462.144928,497.934479 454.466003,507.439636 442.427368,509.287842 
	C443.052246,512.156982 437.220001,509.064362 439.000000,513.000000 
	C438.555542,513.000000 438.111115,513.000000 437.665161,512.722534 
	C437.109253,512.173950 436.554871,511.902893 436.000488,511.631836 
	C436.000305,512.087891 436.000153,512.543945 436.000000,513.000000 
	C427.645782,513.000000 419.291534,513.000000 410.468658,513.000000 
z"/>
<path fill="#000000" opacity="1.000000" stroke="none" 
	d="
M439.468658,513.000000 
	C437.220001,509.064362 443.052246,512.156982 442.427368,509.287842 
	C454.466003,507.439636 462.144928,497.934479 472.085541,492.401581 
	C475.098450,490.724640 478.469391,489.476868 481.064575,487.302429 
	C490.049225,479.774353 493.887207,468.477509 500.865814,459.449615 
	C502.706268,457.068665 504.911438,454.853271 506.214447,452.200928 
	C508.080322,448.402832 509.220428,444.252869 510.793396,440.302063 
	C511.101624,439.527893 511.969727,438.976654 512.789795,438.661285 
	C513.000000,463.593536 513.000000,488.187042 513.000000,513.000000 
	C488.646210,513.000000 464.291779,513.000000 439.468658,513.000000 
z"/>
<path fill="#000000" opacity="1.000000" stroke="none" 
	d="
M442.960602,4.883251 
	C441.414520,3.723172 439.868439,2.563095 438.661194,1.201509 
	C463.593536,1.000000 488.187042,1.000000 513.000000,1.000000 
	C513.000000,25.353788 513.000000,49.708237 513.000000,74.531342 
	C508.958282,77.062637 510.051208,71.968674 510.004700,71.788429 
	C508.488190,65.911232 506.133209,60.571045 501.381592,55.736786 
	C500.213654,53.863346 499.474518,52.459198 498.620392,51.128860 
	C495.809387,46.750469 492.956726,42.398811 490.427368,37.887962 
	C488.192108,34.810738 485.649536,31.882448 482.972900,28.642155 
	C480.318726,26.199593 478.354187,23.877625 474.611847,22.826586 
	C470.359406,21.632296 466.838562,17.833014 462.676971,15.014595 
	C459.513336,12.908999 456.672424,10.954942 453.787109,8.656147 
	C451.508820,7.836066 449.274933,7.360724 447.018250,6.564826 
	C445.650513,5.790597 444.305542,5.336926 442.960602,4.883251 
z"/>
<path fill="#000000" opacity="1.000000" stroke="none" 
	d="
M66.038559,507.115997 
	C68.614838,508.312744 71.221024,509.450958 73.748962,510.742371 
	C74.496231,511.124146 75.022743,511.938019 75.325211,512.776978 
	C50.406464,513.000000 25.812927,513.000000 1.000000,513.000000 
	C1.000000,488.646210 1.000000,464.291779 1.000000,439.468658 
	C5.042653,436.934204 3.882445,441.911896 3.977106,442.216492 
	C5.702461,447.769226 7.441417,453.214264 12.039402,458.020081 
	C14.868228,462.460541 17.516731,466.230011 20.184689,470.337219 
	C21.503361,473.316986 22.395233,476.280151 24.177654,478.541351 
	C29.670317,485.509583 36.735241,490.551636 45.033142,494.368225 
	C50.891830,498.718475 56.565098,502.817261 62.373970,506.713898 
	C63.278427,507.320587 64.801537,507.005066 66.038559,507.115997 
z"/>
<path fill="#000000" opacity="1.000000" stroke="none" 
	d="
M74.531342,1.000000 
	C76.892838,4.886013 72.008705,3.971688 71.760803,4.041847 
	C60.045986,7.357248 51.265167,15.504636 41.470234,21.954138 
	C39.022484,23.565866 35.971626,24.293528 33.609638,25.997999 
	C24.349232,32.680550 21.068884,43.842678 14.251447,52.382114 
	C12.182248,54.973965 9.848427,57.488003 8.409165,60.417614 
	C6.320979,64.668106 4.980440,69.281837 3.207098,73.694870 
	C2.894800,74.472038 2.024976,75.025169 1.206311,75.340881 
	C1.000000,50.406464 1.000000,25.812923 1.000000,1.000000 
	C25.353788,1.000000 49.708237,1.000000 74.531342,1.000000 
z"/>
<path fill="#000000" opacity="1.000000" stroke="none" 
	d="
M436.250000,513.000000 
	C436.000153,512.543945 436.000305,512.087891 436.000488,511.631836 
	C436.554871,511.902893 437.109253,512.173950 437.331818,512.722534 
	C437.000000,513.000000 436.500000,513.000000 436.250000,513.000000 
z"/>
<path fill="#000000" opacity="1.000000" stroke="none" 
	d="
M77.250000,513.000000 
	C76.999481,512.544067 76.998962,512.088135 76.998444,511.632141 
	C77.553825,511.903351 78.109192,512.174561 78.332275,512.722900 
	C78.000000,513.000000 77.500000,513.000000 77.250000,513.000000 
z"/>
<path fill="#000000" opacity="1.000000" stroke="none" 
	d="
M77.750000,1.000000 
	C77.999962,1.454734 77.999924,1.909468 77.999878,2.364201 
	C77.445656,2.093749 76.891426,1.823298 76.668602,1.276423 
	C77.000000,1.000000 77.500000,1.000000 77.750000,1.000000 
z"/>
<path fill="#000000" opacity="1.000000" stroke="none" 
	d="
M436.750000,1.000000 
	C437.000000,1.454620 437.000000,1.909240 437.000000,2.363858 
	C436.446014,2.093675 435.892059,1.823494 435.669037,1.276657 
	C436.000000,1.000000 436.500000,1.000000 436.750000,1.000000 
z"/>
<path fill="#000000" opacity="1.000000" stroke="none" 
	d="
M513.000000,436.750000 
	C512.543884,436.999786 512.087830,436.999542 511.631714,436.999329 
	C511.902863,436.444916 512.174011,435.890503 512.722534,435.668030 
	C513.000000,436.000000 513.000000,436.500000 513.000000,436.750000 
z"/>
<path fill="#000000" opacity="1.000000" stroke="none" 
	d="
M1.000000,436.250000 
	C1.454576,436.000153 1.909151,436.000305 2.363727,436.000458 
	C2.093556,436.554260 1.823385,437.108093 1.276607,437.330933 
	C1.000000,437.000000 1.000000,436.500000 1.000000,436.250000 
z"/>
<path fill="#000000" opacity="1.000000" stroke="none" 
	d="
M1.000000,77.250000 
	C1.454600,76.999962 1.909200,76.999924 2.363800,76.999893 
	C2.093565,77.553986 1.823329,78.108086 1.276547,78.331085 
	C1.000000,78.000000 1.000000,77.500000 1.000000,77.250000 
z"/>
<path fill="#000000" opacity="1.000000" stroke="none" 
	d="
M513.000000,77.750000 
	C512.544922,78.000122 512.089905,78.000244 511.634857,78.000374 
	C511.905334,77.446030 512.175842,76.891678 512.723145,76.668663 
	C513.000000,77.000000 513.000000,77.500000 513.000000,77.750000 
z"/>
<path fill="#FDFEFE" opacity="1.000000" stroke="none" 
	d="
M273.462128,337.117615 
	C263.309082,337.142914 253.619812,337.095306 243.002975,337.046112 
	C232.717178,337.092194 223.358963,337.139893 213.536835,337.115875 
	C196.714432,337.092010 180.355942,337.139832 163.538269,337.116028 
	C160.456192,337.030304 157.824554,336.872894 155.212234,337.032135 
	C149.888855,337.356689 146.383011,335.181274 144.860077,329.998627 
	C144.892166,312.974854 144.924240,295.951080 144.884186,278.463440 
	C144.860031,266.642242 144.907974,255.284851 144.883896,243.463638 
	C144.860092,232.975601 144.908325,222.951416 144.884338,212.463409 
	C144.876846,208.538010 144.882278,205.074081 145.019760,201.615387 
	C145.239517,196.087555 148.158188,193.156158 153.745422,193.030014 
	C159.518463,192.899658 165.296066,192.971924 171.535370,192.883743 
	C186.023422,192.859848 200.047791,192.907761 214.536057,192.884064 
	C237.772263,192.858627 260.544586,192.904785 284.122650,192.952621 
	C292.951965,192.906906 300.975555,192.859512 309.461975,192.883942 
	C315.283417,192.907974 320.642029,192.860184 326.464264,192.884232 
	C332.173767,192.969925 337.454742,192.625046 342.652130,193.133911 
	C345.704681,193.432770 348.624359,195.089447 351.603790,196.135376 
	C357.834290,208.624054 364.064789,221.112717 370.545868,233.830521 
	C374.395966,241.463776 377.602448,249.095291 381.714447,256.202911 
	C385.254181,262.321381 385.728180,267.829651 381.648651,273.665436 
	C380.903442,274.731445 380.487915,276.027893 379.851532,277.575439 
	C371.170929,294.954102 362.361603,311.879822 354.055450,329.048920 
	C351.195435,334.960602 347.441833,337.508575 340.850006,337.112915 
	C333.235321,336.655823 325.570648,337.030762 317.463867,337.116272 
	C302.641998,337.140289 288.283936,337.092499 273.462128,337.117615 
M289.927795,320.958221 
	C305.410187,320.971069 320.894196,321.089050 336.372833,320.854034 
	C338.160889,320.826874 340.750824,319.265869 341.563110,317.690918 
	C350.105225,301.129364 358.405212,284.441833 366.615051,267.712067 
	C367.298157,266.320038 367.450104,264.075653 366.806427,262.723480 
	C363.465240,255.704697 359.785614,248.847000 356.084381,241.219788 
	C352.626984,234.239304 349.185852,227.250717 345.708618,220.280136 
	C339.770935,208.377274 339.761414,208.382019 325.070892,209.043533 
	C304.380798,209.091446 283.690674,209.139359 262.072815,209.043762 
	C228.513031,209.043762 194.953232,209.043762 161.187271,209.043762 
	C161.187271,240.801193 161.187271,271.900879 161.043610,303.926117 
	C161.097275,309.294342 161.150955,314.662537 161.176620,320.492828 
	C161.176620,320.492828 161.502228,320.821869 161.502228,320.821869 
	C161.502228,320.821869 161.964386,320.795197 162.894180,320.954315 
	C178.595901,320.907532 194.297623,320.860718 210.927048,320.957825 
	C224.951172,320.909943 238.975296,320.862061 253.927307,320.957001 
	C265.618317,320.909515 277.309296,320.862061 289.927795,320.958221 
z"/>
<path fill="#24DEDB" opacity="1.000000" stroke="none" 
	d="
M351.966766,196.053421 
	C348.624359,195.089447 345.704681,193.432770 342.652130,193.133911 
	C337.454742,192.625046 332.173767,192.969925 326.464264,192.486328 
	C325.497833,188.141113 327.234222,185.553024 330.505646,183.623917 
	C332.145782,182.656769 333.510651,181.222839 335.237274,179.775589 
	C336.316376,178.034103 337.158173,176.517044 338.336670,174.932007 
	C340.448944,173.242706 342.224487,171.621353 344.367035,169.979492 
	C346.156036,168.305969 347.578033,166.652985 349.338501,164.931519 
	C352.118011,162.575363 354.559021,160.287689 357.363281,157.980270 
	C359.484375,155.973694 361.242188,153.986847 363.339111,151.931076 
	C366.785492,149.574768 369.892761,147.287384 373.209595,144.751648 
	C373.612762,143.668869 373.806396,142.834427 374.338501,141.931519 
	C377.118011,139.575363 379.559021,137.287674 382.363281,134.980270 
	C384.484375,132.973694 386.242188,130.986847 388.339111,128.931091 
	C391.785492,126.574783 394.892761,124.287392 398.209534,121.751640 
	C398.612732,120.668846 398.806366,119.834419 399.338501,118.931534 
	C402.118042,116.575378 404.559021,114.287697 407.363281,111.980270 
	C409.484375,109.973625 411.242188,107.986710 413.339111,105.930939 
	C416.785492,103.574722 419.892761,101.287361 423.237305,98.775589 
	C424.316437,97.034058 425.158234,95.516953 426.336731,93.931892 
	C428.448944,92.242615 430.224457,90.621300 432.367035,88.979454 
	C434.156036,87.305946 435.578003,85.652969 437.338501,83.931519 
	C440.118011,81.575363 442.559021,79.287682 445.250000,76.999954 
	C445.666656,76.999840 445.833344,76.999771 446.310150,76.944359 
	C447.413544,76.259354 448.206787,75.629684 449.162903,74.720184 
	C449.883881,73.293518 450.441956,72.146683 451.339142,70.930969 
	C454.785522,68.574692 457.892761,66.287277 461.209595,63.751511 
	C461.612793,62.668720 461.806396,61.834286 462.338562,60.931416 
	C465.118042,58.575317 467.559021,56.287655 470.363281,53.980270 
	C472.484375,51.973648 474.242188,49.986748 476.339722,47.930782 
	C477.641022,47.245155 478.643188,46.683098 479.556915,46.002373 
	C483.093231,43.367714 486.601379,40.695251 490.120056,38.036884 
	C492.956726,42.398811 495.809387,46.750469 498.620392,51.128860 
	C499.474518,52.459198 500.213654,53.863346 501.060974,55.595490 
	C500.391846,56.261314 499.170288,56.407761 499.016449,56.892830 
	C496.345520,65.314415 490.353821,70.787727 483.085602,75.168472 
	C482.802399,75.339157 482.421448,75.393486 482.201263,75.616035 
	C476.739899,81.136749 471.475159,86.867279 465.797791,92.154984 
	C459.312134,98.195595 452.463379,103.846497 445.763092,109.656021 
	C445.519318,109.867363 445.113373,109.901421 444.889923,110.124962 
	C439.192291,115.825691 433.649872,121.690392 427.784546,127.212280 
	C421.556732,133.075378 415.027130,138.618118 408.617096,144.286957 
	C408.380493,144.496185 407.947052,144.487686 407.719818,144.702042 
	C401.970001,150.126022 396.254974,155.587051 390.488922,160.993622 
	C388.135468,163.200394 385.682648,165.301559 383.258453,167.431885 
	C383.019043,167.642273 382.579620,167.644073 382.373596,167.870560 
	C377.466278,173.265289 371.183655,177.512680 366.693878,182.899765 
	C362.366425,188.092072 356.560638,191.061203 351.966766,196.053421 
z"/>
<path fill="#24E0D9" opacity="1.000000" stroke="none" 
	d="
M437.000000,84.000000 
	C435.578003,85.652969 434.156036,87.305946 432.020569,89.042374 
	C429.538025,90.750496 427.769012,92.375168 426.000000,93.999847 
	C425.158234,95.516953 424.316437,97.034058 422.866882,98.795090 
	C419.172760,101.359276 416.086395,103.679543 413.000000,105.999802 
	C411.242188,107.986710 409.484375,109.973625 407.020599,112.050476 
	C403.876434,114.426949 401.438232,116.713478 399.000000,119.000000 
	C398.806366,119.834419 398.612732,120.668846 397.839111,121.771141 
	C394.172760,124.359344 391.086395,126.679672 388.000000,129.000000 
	C386.242188,130.986847 384.484375,132.973694 382.014771,135.044006 
	C378.868683,137.418304 376.434326,139.709152 374.000000,142.000000 
	C373.806396,142.834427 373.612762,143.668869 372.839111,144.771149 
	C369.172729,147.359344 366.086365,149.679672 363.000000,152.000000 
	C361.242188,153.986847 359.484375,155.973694 357.014771,158.044006 
	C353.868683,160.418320 351.434357,162.709167 349.000000,165.000000 
	C347.578033,166.652985 346.156036,168.305969 344.020569,170.042374 
	C341.538025,171.750519 339.769012,173.375259 338.000000,174.999985 
	C337.158173,176.517044 336.316376,178.034103 334.865967,179.795227 
	C331.759735,181.249466 328.508850,181.847961 326.924194,183.799454 
	C323.799927,187.646942 320.011566,187.965408 315.655273,188.285019 
	C312.985596,188.480896 309.390259,188.661041 308.999115,192.812103 
	C300.975555,192.859512 292.951965,192.906906 284.541077,192.881683 
	C284.154327,187.051147 288.301422,184.120682 292.148560,180.924820 
	C294.669098,178.830963 297.004913,176.515915 299.446930,174.326035 
	C301.659485,172.341888 303.908539,170.398544 306.132477,168.426987 
	C307.731354,167.009537 309.319397,165.579788 310.905029,164.147507 
	C313.469147,161.831375 316.032410,159.514236 318.586212,157.186768 
	C320.295105,155.629318 321.985596,154.051666 323.686920,152.485870 
	C326.348053,150.036697 329.026917,147.606522 331.668457,145.136429 
	C333.475342,143.446823 335.205353,141.674835 337.017242,139.990845 
	C339.064941,138.087662 341.167145,136.243164 343.243256,134.370483 
	C345.080048,132.713654 346.916901,131.056808 348.747803,129.393463 
	C351.424683,126.961540 354.082275,124.508095 356.779266,122.098709 
	C357.518829,121.438011 358.454956,120.988098 359.155701,120.294739 
	C364.775665,114.734062 370.191833,108.954819 376.001862,103.602287 
	C382.418976,97.690506 389.307587,92.292374 395.766632,86.423744 
	C401.492859,81.220932 406.818268,75.579079 412.491241,70.314919 
	C418.767456,64.490959 425.243561,58.882645 431.619354,53.165619 
	C433.340668,51.622139 435.008484,50.019176 436.710327,48.453827 
	C439.372192,46.005470 442.040039,43.563580 444.709534,41.123562 
	C446.296631,39.672947 447.892151,38.231495 449.483154,36.785152 
	C452.399200,34.134212 455.404236,31.573231 458.204285,28.804960 
	C460.792480,26.246119 465.572754,24.568951 462.416626,18.884144 
	C462.516754,17.316036 462.758209,16.241087 462.999695,15.166134 
	C466.838562,17.833014 470.359406,21.632296 474.611847,22.826586 
	C478.354187,23.877625 480.318726,26.199593 482.661194,28.828339 
	C479.295563,32.322254 478.667664,35.897968 479.651794,40.077690 
	C479.937653,41.291782 479.315552,42.874439 478.721710,44.100201 
	C478.039215,45.508968 476.926086,46.709103 476.000000,47.999855 
	C474.242188,49.986748 472.484375,51.973648 470.014771,54.044006 
	C466.868652,56.418262 464.434326,58.709061 462.000000,60.999855 
	C461.806396,61.834286 461.612793,62.668720 460.839172,63.771061 
	C457.172791,66.359261 454.086395,68.679558 451.000000,70.999847 
	C450.441956,72.146683 449.883881,73.293518 448.827087,74.742188 
	C447.552246,75.695915 446.776123,76.347801 446.000000,76.999687 
	C445.833344,76.999771 445.666656,76.999840 444.901489,77.063683 
	C441.868652,79.418312 439.434326,81.709160 437.000000,84.000000 
z"/>
<path fill="#24E2D5" opacity="1.000000" stroke="none" 
	d="
M462.676941,15.014596 
	C462.758209,16.241087 462.516754,17.316036 462.137024,18.694841 
	C460.876434,19.222763 459.386566,19.063833 458.690277,19.731939 
	C453.474640,24.736565 448.417999,29.906878 443.305786,35.019478 
	C442.130585,36.194794 440.961945,37.379200 439.740417,38.505318 
	C432.354614,45.314156 425.023804,52.184971 417.537415,58.881748 
	C411.268250,64.489685 404.688812,69.753304 398.473114,75.417786 
	C392.374298,80.975716 386.643127,86.935196 380.599701,92.556259 
	C374.319214,98.397835 367.854919,104.041702 361.476807,109.778488 
	C355.952301,114.747505 350.405273,119.692032 344.923492,124.707779 
	C337.509705,131.491241 330.101227,138.281830 322.780212,145.164825 
	C316.900208,150.693008 311.149017,156.358307 305.352631,161.975143 
	C304.397003,162.901184 303.551331,163.943420 302.572876,164.842773 
	C294.800568,171.986572 287.017151,179.118362 279.209961,186.223999 
	C278.358124,186.999298 277.392395,188.060028 276.381195,188.183563 
	C269.502350,189.023849 262.597107,189.648239 255.700394,190.342331 
	C255.519409,189.714096 255.338440,189.085861 255.157455,188.457642 
	C318.896851,129.712677 382.636261,70.967728 447.389008,11.288819 
	C444.329742,10.781739 442.993195,10.560205 441.494934,10.311870 
	C442.039124,8.618882 442.540894,7.057882 443.001648,5.190068 
	C444.305542,5.336926 445.650513,5.790597 447.083191,6.916066 
	C448.668823,11.463661 451.437836,9.347692 453.831512,9.000883 
	C456.672424,10.954942 459.513336,12.908999 462.676941,15.014596 
z"/>
<path fill="#24DFD9" opacity="1.000000" stroke="none" 
	d="
M144.508270,330.020081 
	C146.383011,335.181274 149.888855,337.356689 155.212234,337.032135 
	C157.824554,336.872894 160.456192,337.030304 163.467377,337.449890 
	C161.673019,340.506012 159.735016,343.415680 157.258286,345.755005 
	C151.591141,351.107788 145.568985,356.083130 139.857101,361.390503 
	C129.281219,371.217438 118.937012,381.295441 108.290092,391.043640 
	C94.097549,404.038086 79.613365,416.714233 65.434555,429.723389 
	C54.914631,439.375458 44.801937,449.471863 34.262611,459.101990 
	C29.892771,463.094849 24.883646,466.388123 20.165232,469.999512 
	C17.516731,466.230011 14.868228,462.460541 12.192892,458.344666 
	C12.871708,456.559387 13.770213,455.180206 14.238078,453.667786 
	C14.951859,451.360413 14.576154,448.136902 16.037437,446.732910 
	C26.340483,436.834045 36.990776,427.296356 47.539696,417.653717 
	C52.324333,413.280151 57.170380,408.973083 61.920124,404.562134 
	C81.168587,386.686737 100.366966,368.757385 119.634804,350.902924 
	C126.459747,344.578613 133.402527,338.380127 140.363052,332.204803 
	C141.428574,331.259491 142.882294,330.751678 144.508270,330.020081 
z"/>
<path fill="#24DADF" opacity="1.000000" stroke="none" 
	d="
M214.000732,337.187561 
	C223.358963,337.139893 232.717178,337.092194 242.539368,337.117371 
	C244.956253,342.429565 243.178986,345.839142 237.926590,347.548492 
	C237.770508,347.599304 237.601288,347.669739 237.487274,347.781250 
	C231.667572,353.470612 225.846985,359.159088 220.050110,364.871613 
	C219.585617,365.329376 219.386902,366.072754 218.898453,366.487823 
	C212.556458,371.877991 206.030228,377.062408 199.863327,382.644379 
	C193.726456,388.199127 187.955139,394.156830 181.995850,399.909210 
	C180.460831,401.390961 178.786194,402.727448 177.238434,404.196777 
	C174.656586,406.647827 172.208252,409.244965 169.556122,411.615417 
	C163.349091,417.163086 157.058578,422.617432 150.785278,428.090515 
	C150.419937,428.409271 149.818375,428.467865 149.476242,428.801056 
	C143.645889,434.479431 137.833054,440.175842 132.038879,445.891144 
	C131.574371,446.349335 131.372345,447.089783 130.883438,447.504700 
	C124.526772,452.899384 118.120056,458.235229 111.776268,463.644897 
	C110.294212,464.908783 108.938980,466.338287 107.636536,467.791199 
	C106.319107,469.260986 105.445740,471.438202 103.840149,472.280212 
	C99.608467,474.499451 96.846443,477.931274 93.657951,481.345154 
	C87.910179,487.499115 80.763008,492.328705 74.364510,497.899994 
	C71.389694,500.490143 68.799400,503.521912 66.036682,506.734741 
	C64.801537,507.005066 63.278427,507.320587 62.373970,506.713898 
	C56.565098,502.817261 50.891830,498.718475 45.285622,494.145020 
	C48.297638,490.189850 51.039459,486.622101 54.150269,483.411957 
	C56.498390,480.988800 59.449402,479.160492 61.901241,476.825073 
	C67.026024,471.943695 71.857948,466.866791 77.543549,462.460205 
	C81.027672,459.759918 83.198334,454.982178 87.850662,452.965240 
	C88.987694,452.472351 89.795586,451.226776 90.764061,450.337311 
	C93.739365,447.604828 96.701683,444.857788 99.707184,442.158875 
	C100.675949,441.288910 102.213646,440.766632 102.717880,439.714691 
	C104.914246,435.132568 108.262718,431.983978 112.891785,429.905518 
	C114.267593,429.287750 115.110283,427.547455 116.291084,426.419769 
	C122.619667,420.375885 128.844131,414.213379 135.366669,408.385162 
	C140.933350,403.411072 146.861099,398.841583 152.601761,394.060272 
	C152.952789,393.767914 152.967239,393.092224 153.300125,392.754272 
	C159.368225,386.593933 165.002777,379.876648 171.742798,374.563080 
	C175.094406,371.920685 178.794952,370.159119 180.830521,366.037018 
	C181.619400,364.439484 183.847519,363.575623 185.363937,362.310303 
	C191.350204,357.315521 197.320175,352.301086 203.271561,347.264832 
	C203.627518,346.963593 203.666763,346.282501 204.026215,345.992004 
	C206.193787,344.239899 208.472305,342.621063 210.590042,340.812805 
	C211.844330,339.741913 212.871475,338.404938 214.000732,337.187561 
z"/>
<path fill="#24DFD9" opacity="1.000000" stroke="none" 
	d="
M476.339722,47.930786 
	C476.926086,46.709103 478.039215,45.508968 478.721710,44.100201 
	C479.315552,42.874439 479.937653,41.291782 479.651794,40.077690 
	C478.667664,35.897968 479.295563,32.322254 482.795227,29.140341 
	C485.649536,31.882448 488.192108,34.810738 490.427368,37.887951 
	C486.601379,40.695251 483.093231,43.367714 479.556915,46.002373 
	C478.643188,46.683098 477.641022,47.245155 476.339722,47.930786 
z"/>
<path fill="#24E3D5" opacity="1.000000" stroke="none" 
	d="
M453.787109,8.656144 
	C451.437836,9.347692 448.668823,11.463661 447.106018,7.236623 
	C449.274933,7.360724 451.508820,7.836066 453.787109,8.656144 
z"/>
<path fill="#24DDDC" opacity="1.000000" stroke="none" 
	d="
M213.536835,337.115906 
	C212.871475,338.404938 211.844330,339.741913 210.590042,340.812805 
	C208.472305,342.621063 206.193787,344.239899 204.026215,345.992004 
	C203.666763,346.282501 203.627518,346.963593 203.271561,347.264832 
	C197.320175,352.301086 191.350204,357.315521 185.363937,362.310303 
	C183.847519,363.575623 181.619400,364.439484 180.830521,366.037018 
	C178.794952,370.159119 175.094406,371.920685 171.742798,374.563080 
	C165.002777,379.876648 159.368225,386.593933 153.300125,392.754272 
	C152.967239,393.092224 152.952789,393.767914 152.601761,394.060272 
	C146.861099,398.841583 140.933350,403.411072 135.366669,408.385162 
	C128.844131,414.213379 122.619667,420.375885 116.291084,426.419769 
	C115.110283,427.547455 114.267593,429.287750 112.891785,429.905518 
	C108.262718,431.983978 104.914246,435.132568 102.717880,439.714691 
	C102.213646,440.766632 100.675949,441.288910 99.707184,442.158875 
	C96.701683,444.857788 93.739365,447.604828 90.764061,450.337311 
	C89.795586,451.226776 88.987694,452.472351 87.850662,452.965240 
	C83.198334,454.982178 81.027672,459.759918 77.543549,462.460205 
	C71.857948,466.866791 67.026024,471.943695 61.901241,476.825073 
	C59.449402,479.160492 56.498390,480.988800 54.150269,483.411957 
	C51.039459,486.622101 48.297638,490.189850 45.144760,493.827148 
	C36.735241,490.551636 29.670317,485.509583 24.177654,478.541351 
	C22.395233,476.280151 21.503361,473.316986 20.184685,470.337219 
	C24.883646,466.388123 29.892771,463.094849 34.262611,459.101990 
	C44.801937,449.471863 54.914631,439.375458 65.434555,429.723389 
	C79.613365,416.714233 94.097549,404.038086 108.290092,391.043640 
	C118.937012,381.295441 129.281219,371.217438 139.857101,361.390503 
	C145.568985,356.083130 151.591141,351.107788 157.258286,345.755005 
	C159.735016,343.415680 161.673019,340.506012 163.926544,337.521515 
	C180.355942,337.139832 196.714432,337.092010 213.536835,337.115906 
z"/>
<path fill="#24DEDA" opacity="1.000000" stroke="none" 
	d="
M209.999329,320.813934 
	C194.297623,320.860718 178.595901,320.907532 162.320831,320.730103 
	C161.588531,320.322388 161.407578,320.164001 161.204620,320.030762 
	C161.150955,314.662537 161.097275,309.294342 161.482651,303.457947 
	C167.087997,299.285828 172.534637,295.910217 177.351440,291.797058 
	C183.734512,286.346375 189.549805,280.236664 195.748886,274.562958 
	C201.961853,268.876526 208.424225,263.462585 214.635300,257.774200 
	C221.317291,251.654480 227.773849,245.288956 234.441833,239.153549 
	C240.031189,234.010635 245.837280,229.103592 251.441635,223.976486 
	C254.482376,221.194702 257.497528,218.335663 260.141937,215.190079 
	C261.522095,213.548340 262.074371,211.210632 263.000580,209.187271 
	C283.690674,209.139359 304.380798,209.091446 325.529510,209.488754 
	C324.863068,212.250473 324.196259,215.001938 322.506378,216.782318 
	C319.921875,219.505219 316.420929,221.336700 313.683838,223.940582 
	C307.600983,229.727402 301.829681,235.841064 295.768524,241.651611 
	C293.166595,244.145935 290.023499,246.069351 287.362976,248.510178 
	C280.457062,254.845779 273.721710,261.366974 266.843048,267.732758 
	C261.299347,272.863068 255.571243,277.795197 250.060303,282.959656 
	C243.563965,289.047577 237.343231,295.433685 230.761642,301.425354 
	C224.684982,306.957367 218.255554,312.100403 212.069626,317.515472 
	C211.134003,318.334473 210.677475,319.700775 209.999329,320.813934 
z"/>
<path fill="#24E3D5" opacity="1.000000" stroke="none" 
	d="
M262.536682,209.115509 
	C262.074371,211.210632 261.522095,213.548340 260.141937,215.190079 
	C257.497528,218.335663 254.482376,221.194702 251.441635,223.976486 
	C245.837280,229.103592 240.031189,234.010635 234.441833,239.153549 
	C227.773849,245.288956 221.317291,251.654480 214.635300,257.774200 
	C208.424225,263.462585 201.961853,268.876526 195.748886,274.562958 
	C189.549805,280.236664 183.734512,286.346375 177.351440,291.797058 
	C172.534637,295.910217 167.087997,299.285828 161.554474,302.995178 
	C161.187271,271.900879 161.187271,240.801193 161.187271,209.043762 
	C194.953232,209.043762 228.513031,209.043762 262.536682,209.115509 
z"/>
<path fill="#25DBDE" opacity="1.000000" stroke="none" 
	d="
M210.463196,320.885864 
	C210.677475,319.700775 211.134003,318.334473 212.069626,317.515472 
	C218.255554,312.100403 224.684982,306.957367 230.761642,301.425354 
	C237.343231,295.433685 243.563965,289.047577 250.060303,282.959656 
	C255.571243,277.795197 261.299347,272.863068 266.843048,267.732758 
	C273.721710,261.366974 280.457062,254.845779 287.362976,248.510178 
	C290.023499,246.069351 293.166595,244.145935 295.768524,241.651611 
	C301.829681,235.841064 307.600983,229.727402 313.683838,223.940582 
	C316.420929,221.336700 319.921875,219.505219 322.506378,216.782318 
	C324.196259,215.001938 324.863068,212.250473 325.993286,209.559875 
	C339.761414,208.382019 339.770935,208.377274 345.708618,220.280136 
	C349.185852,227.250717 352.626984,234.239304 355.775909,241.607132 
	C352.433838,244.141617 349.384979,246.267670 346.372589,248.444183 
	C344.696411,249.655258 343.080872,250.950348 341.215393,251.984222 
	C336.360382,245.339813 330.217255,241.519333 322.216431,241.058731 
	C304.710724,240.050949 289.987976,259.197968 300.148315,277.835266 
	C298.202698,278.396423 296.289185,278.497559 295.193665,279.496124 
	C281.626068,291.863403 268.152588,304.334717 254.750595,316.881470 
	C253.785492,317.785004 253.565720,319.484680 252.999420,320.814209 
	C238.975296,320.862061 224.951172,320.909943 210.463196,320.885864 
z"/>
<path fill="#25D7E3" opacity="1.000000" stroke="none" 
	d="
M341.437988,252.207550 
	C343.080872,250.950348 344.696411,249.655258 346.372589,248.444183 
	C349.384979,246.267670 352.433838,244.141617 355.845642,241.963837 
	C359.785614,248.847000 363.465240,255.704697 366.806427,262.723480 
	C367.450104,264.075653 367.298157,266.320038 366.615051,267.712067 
	C358.405212,284.441833 350.105225,301.129364 341.563110,317.690918 
	C340.750824,319.265869 338.160889,320.826874 336.372833,320.854034 
	C320.894196,321.089050 305.410187,320.971069 289.465149,320.496399 
	C290.245972,317.738495 291.168793,315.173340 292.813019,313.213379 
	C294.936066,310.682678 297.661774,308.663116 300.076874,306.369629 
	C301.378296,305.133728 302.348511,303.095337 303.854095,302.605591 
	C310.952728,300.296448 313.252991,292.796570 319.427704,289.059753 
	C337.279022,289.901855 351.976288,270.878326 341.437988,252.207550 
z"/>
<path fill="#24DAE0" opacity="1.000000" stroke="none" 
	d="
M318.999603,289.118408 
	C313.252991,292.796570 310.952728,300.296448 303.854095,302.605591 
	C302.348511,303.095337 301.378296,305.133728 300.076874,306.369629 
	C297.661774,308.663116 294.936066,310.682678 292.813019,313.213379 
	C291.168793,315.173340 290.245972,317.738495 289.001404,320.424622 
	C277.309296,320.862061 265.618317,320.909515 253.463348,320.885620 
	C253.565720,319.484680 253.785492,317.785004 254.750595,316.881470 
	C268.152588,304.334717 281.626068,291.863403 295.193665,279.496124 
	C296.289185,278.497559 298.202698,278.396423 300.370850,278.058777 
	C305.388275,284.537415 311.539886,287.909698 318.999603,289.118408 
z"/>
<path fill="#24DFD9" opacity="1.000000" stroke="none" 
	d="
M309.461975,192.883942 
	C309.390259,188.661041 312.985596,188.480896 315.655273,188.285019 
	C320.011566,187.965408 323.799927,187.646942 326.924194,183.799454 
	C328.508850,181.847961 331.759735,181.249466 334.628662,180.019653 
	C333.510651,181.222839 332.145782,182.656769 330.505646,183.623917 
	C327.234222,185.553024 325.497833,188.141113 326.000610,192.414474 
	C320.642029,192.860184 315.283417,192.907974 309.461975,192.883942 
z"/>
<path fill="#25DBDE" opacity="1.000000" stroke="none" 
	d="
M161.190613,320.261780 
	C161.407578,320.164001 161.588531,320.322388 161.855942,320.650543 
	C161.964386,320.795197 161.502228,320.821869 161.502228,320.821869 
	C161.502228,320.821869 161.176620,320.492828 161.190613,320.261780 
z"/>
<path fill="#24DFD9" opacity="1.000000" stroke="none" 
	d="
M349.338501,164.931519 
	C351.434357,162.709167 353.868683,160.418320 356.651489,158.063736 
	C354.559021,160.287689 352.118011,162.575363 349.338501,164.931519 
z"/>
<path fill="#24DFD9" opacity="1.000000" stroke="none" 
	d="
M363.339111,151.931076 
	C366.086365,149.679672 369.172729,147.359344 372.629547,145.019501 
	C369.892761,147.287384 366.785492,149.574768 363.339111,151.931076 
z"/>
<path fill="#24DFD9" opacity="1.000000" stroke="none" 
	d="
M374.338501,141.931519 
	C376.434326,139.709152 378.868683,137.418304 381.651489,135.063736 
	C379.559021,137.287674 377.118011,139.575363 374.338501,141.931519 
z"/>
<path fill="#24DFD9" opacity="1.000000" stroke="none" 
	d="
M388.339111,128.931091 
	C391.086395,126.679672 394.172760,124.359344 397.629578,122.019508 
	C394.892761,124.287392 391.785492,126.574783 388.339111,128.931091 
z"/>
<path fill="#24DFD9" opacity="1.000000" stroke="none" 
	d="
M413.339111,105.930946 
	C416.086395,103.679543 419.172760,101.359276 422.629578,99.019508 
	C419.892761,101.287361 416.785492,103.574722 413.339111,105.930946 
z"/>
<path fill="#24DFD9" opacity="1.000000" stroke="none" 
	d="
M437.338501,83.931534 
	C439.434326,81.709160 441.868652,79.418312 444.651489,77.063736 
	C442.559021,79.287682 440.118011,81.575363 437.338501,83.931534 
z"/>
<path fill="#24DFD9" opacity="1.000000" stroke="none" 
	d="
M451.339142,70.930984 
	C454.086395,68.679558 457.172791,66.359261 460.629578,64.019424 
	C457.892761,66.287277 454.785522,68.574692 451.339142,70.930984 
z"/>
<path fill="#24DFD9" opacity="1.000000" stroke="none" 
	d="
M462.338531,60.931419 
	C464.434326,58.709061 466.868652,56.418262 469.651489,54.063728 
	C467.559021,56.287655 465.118042,58.575317 462.338531,60.931419 
z"/>
<path fill="#24DFD9" opacity="1.000000" stroke="none" 
	d="
M399.338501,118.931534 
	C401.438232,116.713478 403.876434,114.426949 406.657318,112.070213 
	C404.559021,114.287697 402.118042,116.575378 399.338501,118.931534 
z"/>
<path fill="#24DFD9" opacity="1.000000" stroke="none" 
	d="
M338.336700,174.932007 
	C339.769012,173.375259 341.538025,171.750519 343.653503,170.062897 
	C342.224487,171.621353 340.448944,173.242706 338.336700,174.932007 
z"/>
<path fill="#24DFD9" opacity="1.000000" stroke="none" 
	d="
M426.336731,93.931885 
	C427.769012,92.375168 429.538025,90.750496 431.653503,89.062897 
	C430.224457,90.621300 428.448944,92.242615 426.336731,93.931885 
z"/>
<path fill="#24DFD9" opacity="1.000000" stroke="none" 
	d="
M446.310150,76.944351 
	C446.776123,76.347801 447.552246,75.695915 448.664185,75.022018 
	C448.206787,75.629684 447.413544,76.259354 446.310150,76.944351 
z"/>
<path fill="#FCFEFE" opacity="1.000000" stroke="none" 
	d="
M319.427704,289.059753 
	C311.539886,287.909698 305.388275,284.537415 300.783051,278.015778 
	C289.987976,259.197968 304.710724,240.050949 322.216431,241.058731 
	C330.217255,241.519333 336.360382,245.339813 341.215393,251.984222 
	C351.976288,270.878326 337.279022,289.901855 319.427704,289.059753 
M321.394714,272.970032 
	C325.348999,272.605896 328.469360,270.461395 328.591614,266.651825 
	C328.679016,263.927765 327.292297,260.199646 325.250061,258.647675 
	C323.407501,257.247437 319.057526,257.111572 317.135040,258.396149 
	C315.004181,259.819977 313.354523,263.477173 313.326752,266.180664 
	C313.284973,270.243958 316.434448,272.553864 321.394714,272.970032 
z"/>
<path fill="#2CDBE1" opacity="1.000000" stroke="none" 
	d="
M321.002441,272.970032 
	C316.434448,272.553864 313.284973,270.243958 313.326752,266.180664 
	C313.354523,263.477173 315.004181,259.819977 317.135040,258.396149 
	C319.057526,257.111572 323.407501,257.247437 325.250061,258.647675 
	C327.292297,260.199646 328.679016,263.927765 328.591614,266.651825 
	C328.469360,270.461395 325.348999,272.605896 321.002441,272.970032 
z"/>
</svg>